<?xml version="1.0" encoding="utf-8"?>
<!-- Generator: Adobe Illustrator 23.1.1, SVG Export Plug-In . SVG Version: 6.00 Build 0)  -->
<svg version="1.1" id="Ebene_1" xmlns="http://www.w3.org/2000/svg" xmlns:xlink="http://www.w3.org/1999/xlink" x="0px" y="0px"
	 viewBox="0 0 500 500" enable-background="new 0 0 500 500" xml:space="preserve">
<g>
	<g>
		<path fill="#C69C6D" d="M208.864,252.52c12.917,0.347,24.198-2.18,31.277-4.311c-5.997-5.582-14.755-15.023-21.683-27.809
			c-8.026-14.81-14.591-36.289-7.998-62.272c-28.463,12.266-50.088,37.369-57.59,68.019
			C167.567,243.056,186.33,251.911,208.864,252.52z"/>
	</g>
	<g>
		<path fill="#C69C6D" d="M227.082,215.322c6.152,11.464,14.096,20.099,19.544,25.231c1.837-7.985,5.635-20.283,13.239-32.669
			c8.811-14.352,24.124-30.773,49.912-38.058C293.101,157.373,272.412,150,250,150c-9.685,0-19.046,1.382-27.903,3.95
			C214.839,175.02,216.494,195.594,227.082,215.322z"/>
	</g>
	<g>
		<path fill="#C69C6D" d="M319.202,177.816c-21.862,4.254-38.843,15.972-50.629,34.996c-6.853,11.062-10.36,22.26-12.08,29.545
			c7.836-2.401,20.39-5.262,34.912-4.873c16.834,0.455,38.71,5.505,57.912,24.193C349.763,257.846,350,253.951,350,250
			C350,221.628,338.182,196.017,319.202,177.816z"/>
	</g>
	<g>
		<path fill="#C69C6D" d="M291.491,247.491c-13.005-0.402-24.454,2.158-31.622,4.31c5.997,5.583,14.748,15.021,21.673,27.799
			c8.025,14.81,14.59,36.288,7.998,62.272c28.462-12.266,50.087-37.368,57.589-68.017
			C332.512,257.038,313.868,248.186,291.491,247.491z"/>
	</g>
	<g>
		<path fill="#C69C6D" d="M180.798,322.184c21.862-4.254,38.844-15.972,50.629-34.996c6.852-11.06,10.359-22.256,12.079-29.541
			c-7.344,2.251-18.834,4.905-32.21,4.905c-0.894,0-1.792-0.012-2.701-0.036c-16.834-0.455-38.71-5.505-57.912-24.193
			C150.237,242.154,150,246.049,150,250C150,278.372,161.818,303.983,180.798,322.184z"/>
	</g>
	<g>
		<path fill="#C69C6D" d="M272.749,284.364c-6.154-11.357-13.985-19.864-19.371-24.931c-1.836,7.984-5.634,20.29-13.242,32.683
			c-8.811,14.352-24.125,30.773-49.912,38.058C206.899,342.627,227.588,350,250,350c9.686,0,19.047-1.382,27.905-3.951
			C285.203,324.865,283.491,304.186,272.749,284.364z"/>
	</g>
</g>
</svg>
