<?xml version="1.0" encoding="utf-8"?>
<!-- Generator: Adobe Illustrator 24.3.0, SVG Export Plug-In . SVG Version: 6.00 Build 0)  -->
<svg version="1.1" id="Ebene_1" xmlns="http://www.w3.org/2000/svg" xmlns:xlink="http://www.w3.org/1999/xlink" x="0px" y="0px"
	 viewBox="0 0 3000 600" style="enable-background:new 0 0 3000 600;" xml:space="preserve">
<style type="text/css">
	.st0{fill:#BFBFC2;}
	.st1{fill:#FFFFFF;}
</style>
<g>
	<rect class="st0" width="3000" height="600"/>
</g>
<g>
	<path class="st1" d="M1251.51,313.05c2.5,1.6,8.3,4.1,14.4,4.1c11.3,0,14.8-7.2,14.7-12.6c-0.1-9.1-8.3-13-16.8-13h-4.9v-6.6h4.9
		c6.4,0,14.5-3.3,14.5-11c0-5.2-3.3-9.8-11.4-9.8c-5.2,0-10.2,2.3-13,4.3l-2.3-6.4c3.4-2.5,10-5,17-5c12.8,0,18.6,7.6,18.6,15.5
		c0,6.7-4,12.4-12,15.3v0.2c8,1.6,14.5,7.6,14.5,16.7c0,10.4-8.1,19.5-23.7,19.5c-7.3,0-13.7-2.3-16.9-4.4L1251.51,313.05z"/>
	<path class="st1" d="M1343.91,289.95c0,22.1-8.2,34.3-22.6,34.3c-12.7,0-21.3-11.9-21.5-33.4c0-21.8,9.4-33.8,22.6-33.8
		C1336.1,257.05,1343.91,269.25,1343.91,289.95z M1308.6,290.95c0,16.9,5.2,26.5,13.2,26.5c9,0,13.3-10.5,13.3-27.1
		c0-16-4.1-26.5-13.2-26.5C1314.2,263.85,1308.6,273.25,1308.6,290.95z"/>
	<path class="st1" d="M1395.2,289.95c0,22.1-8.2,34.3-22.6,34.3c-12.7,0-21.3-11.9-21.5-33.4c0-21.8,9.4-33.8,22.6-33.8
		C1387.4,257.05,1395.2,269.25,1395.2,289.95z M1359.9,290.95c0,16.9,5.2,26.5,13.2,26.5c9,0,13.3-10.5,13.3-27.1
		c0-16-4.1-26.5-13.2-26.5C1365.5,263.85,1359.9,273.25,1359.9,290.95z"/>
	<path class="st1" d="M1446.5,289.95c0,22.1-8.2,34.3-22.6,34.3c-12.7,0-21.3-11.9-21.5-33.4c0-21.8,9.4-33.8,22.6-33.8
		C1438.7,257.05,1446.5,269.25,1446.5,289.95z M1411.2,290.95c0,16.9,5.2,26.5,13.2,26.5c9,0,13.3-10.5,13.3-27.1
		c0-16-4.1-26.5-13.2-26.5C1416.8,263.85,1411.2,273.25,1411.2,290.95z"/>
	<path class="st1" d="M1461.5,274.75l6.9,10.4c1.8,2.7,3.3,5.2,4.9,7.9h0.3c1.6-2.9,3.2-5.4,4.8-8l6.8-10.3h9.5l-16.5,23.4l17,25
		h-10l-7.1-10.9c-1.9-2.8-3.5-5.5-5.2-8.4h-0.2c-1.6,2.9-3.3,5.5-5.1,8.4l-7,10.9h-9.7l17.2-24.7l-16.4-23.7L1461.5,274.75
		L1461.5,274.75z"/>
	<path class="st1" d="M1538,264.35c-1.8-0.1-4.1,0-6.6,0.4c-13.8,2.3-21.1,12.4-22.6,23.1h0.3c3.1-4.1,8.5-7.5,15.7-7.5
		c11.5,0,19.6,8.3,19.6,21c0,11.9-8.1,22.9-21.6,22.9c-13.9,0-23-10.8-23-27.7c0-12.8,4.6-22.9,11-29.3c5.4-5.3,12.6-8.6,20.8-9.6
		c2.6-0.4,4.8-0.5,6.4-0.5L1538,264.35L1538,264.35z M1535.5,301.85c0-9.3-5.3-14.9-13.4-14.9c-5.3,0-10.2,3.3-12.6,8
		c-0.6,1-1,2.3-1,3.9c0.2,10.7,5.1,18.6,14.3,18.6C1530.4,317.45,1535.5,311.15,1535.5,301.85z"/>
	<path class="st1" d="M1595.4,289.95c0,22.1-8.2,34.3-22.6,34.3c-12.7,0-21.3-11.9-21.5-33.4c0-21.8,9.4-33.8,22.6-33.8
		C1587.6,257.05,1595.4,269.25,1595.4,289.95z M1560.1,290.95c0,16.9,5.2,26.5,13.2,26.5c9,0,13.3-10.5,13.3-27.1
		c0-16-4.1-26.5-13.2-26.5C1565.7,263.85,1560.1,273.25,1560.1,290.95z"/>
	<path class="st1" d="M1646.7,289.95c0,22.1-8.2,34.3-22.6,34.3c-12.7,0-21.3-11.9-21.5-33.4c0-21.8,9.4-33.8,22.6-33.8
		C1638.9,257.05,1646.7,269.25,1646.7,289.95z M1611.4,290.95c0,16.9,5.2,26.5,13.2,26.5c9,0,13.3-10.5,13.3-27.1
		c0-16-4.1-26.5-13.2-26.5C1617,263.85,1611.4,273.25,1611.4,290.95z"/>
	<path class="st1" d="M1657.59,290.55c0-6.2-0.2-11.2-0.4-15.8h7.9l0.4,8.3h0.2c3.6-5.9,9.3-9.4,17.2-9.4c11.7,0,20.5,9.9,20.5,24.6
		c0,17.4-10.6,26-22,26c-6.4,0-12-2.8-14.9-7.6h-0.2v26.3h-8.7V290.55L1657.59,290.55z M1666.3,303.45c0,1.3,0.2,2.5,0.4,3.6
		c1.6,6.1,6.9,10.3,13.2,10.3c9.3,0,14.7-7.6,14.7-18.7c0-9.7-5.1-18-14.4-18c-6,0-11.6,4.3-13.3,10.9c-0.3,1.1-0.6,2.4-0.6,3.6
		L1666.3,303.45L1666.3,303.45z"/>
	<path class="st1" d="M1717.19,274.75l6.9,10.4c1.8,2.7,3.3,5.2,4.9,7.9h0.3c1.6-2.9,3.2-5.4,4.8-8l6.8-10.3h9.5l-16.5,23.4l17,25
		h-10l-7.1-10.9c-1.9-2.8-3.5-5.5-5.2-8.4h-0.2c-1.6,2.9-3.3,5.5-5.1,8.4l-7,10.9h-9.7l17.2-24.7l-16.4-23.7L1717.19,274.75
		L1717.19,274.75z"/>
</g>
</svg>
