<?xml version="1.0" encoding="utf-8"?>
<!-- Generator: Adobe Illustrator 23.1.1, SVG Export Plug-In . SVG Version: 6.00 Build 0)  -->
<svg version="1.1" id="Ebene_1" xmlns="http://www.w3.org/2000/svg" xmlns:xlink="http://www.w3.org/1999/xlink" x="0px" y="0px"
	 viewBox="0 0 50 50" enable-background="new 0 0 50 50" xml:space="preserve">
<g>
	<rect fill="#D4145A" width="50" height="50"/>
</g>
<g>
	<path fill="#FFFFFF" d="M8.812,21.036h3.464v0.632H9.484V23.5c0.117-0.176,0.296-0.323,0.536-0.44
		c0.24-0.117,0.513-0.176,0.82-0.176s0.586,0.058,0.84,0.172c0.253,0.115,0.449,0.271,0.588,0.468
		c0.261,0.384,0.392,0.821,0.392,1.312c0,0.603-0.168,1.095-0.504,1.476s-0.807,0.572-1.412,0.572s-1.08-0.141-1.424-0.424
		c-0.344-0.283-0.559-0.656-0.644-1.12h0.696c0.075,0.288,0.228,0.515,0.46,0.68c0.232,0.165,0.539,0.248,0.92,0.248
		c0.381,0,0.68-0.128,0.896-0.384c0.216-0.256,0.324-0.6,0.324-1.032c0-0.432-0.108-0.764-0.324-0.996
		c-0.216-0.232-0.538-0.348-0.964-0.348c-0.288,0-0.536,0.075-0.744,0.224s-0.363,0.352-0.464,0.608H8.812V21.036z"/>
	<path fill="#FFFFFF" d="M14.296,21.592c0.147-0.168,0.339-0.303,0.576-0.404c0.237-0.102,0.533-0.152,0.888-0.152
		c0.354,0,0.667,0.074,0.936,0.22c0.269,0.146,0.476,0.359,0.62,0.636c0.261,0.512,0.392,1.2,0.392,2.064
		c0,1.109-0.197,1.896-0.592,2.36c-0.326,0.373-0.797,0.56-1.416,0.56c-1.136,0-1.79-0.664-1.96-1.992
		c-0.032-0.277-0.048-0.588-0.048-0.932c0-0.344,0.018-0.653,0.052-0.928c0.035-0.275,0.099-0.54,0.192-0.796
		C14.029,21.972,14.149,21.76,14.296,21.592z M16.792,22.392c-0.083-0.232-0.216-0.408-0.4-0.528s-0.401-0.18-0.652-0.18
		c-0.251,0-0.458,0.043-0.62,0.128c-0.163,0.085-0.29,0.194-0.38,0.328c-0.091,0.133-0.163,0.306-0.216,0.516
		c-0.053,0.211-0.086,0.414-0.1,0.608c-0.013,0.195-0.02,0.425-0.02,0.692c0,0.267,0.006,0.498,0.02,0.692
		c0.014,0.195,0.047,0.397,0.1,0.608c0.053,0.21,0.125,0.383,0.216,0.516c0.09,0.133,0.217,0.243,0.38,0.328
		c0.163,0.085,0.356,0.128,0.58,0.128c0.224,0,0.417-0.043,0.58-0.128c0.163-0.085,0.291-0.194,0.384-0.328s0.164-0.307,0.212-0.52
		c0.085-0.341,0.128-0.728,0.128-1.16s-0.015-0.765-0.044-1S16.874,22.624,16.792,22.392z"/>
	<path fill="#FFFFFF" d="M21.98,22.492l-1.416,2.192l1.408,2.2h-0.824l-1.04-1.632l-0.968,1.632h-0.792l1.416-2.176l-1.416-2.216
		h0.824l1.048,1.64l0.976-1.64H21.98z"/>
	<path fill="#FFFFFF" d="M22.796,21.036h3.463v0.632h-2.792V23.5c0.117-0.176,0.296-0.323,0.536-0.44
		c0.24-0.117,0.513-0.176,0.82-0.176s0.586,0.058,0.84,0.172c0.253,0.115,0.449,0.271,0.588,0.468
		c0.262,0.384,0.393,0.821,0.393,1.312c0,0.603-0.168,1.095-0.504,1.476c-0.336,0.381-0.807,0.572-1.413,0.572
		s-1.08-0.141-1.424-0.424c-0.344-0.283-0.559-0.656-0.644-1.12h0.696c0.075,0.288,0.228,0.515,0.46,0.68
		c0.232,0.165,0.539,0.248,0.92,0.248c0.381,0,0.68-0.128,0.896-0.384c0.216-0.256,0.324-0.6,0.324-1.032
		c0-0.432-0.108-0.764-0.324-0.996c-0.216-0.232-0.538-0.348-0.964-0.348c-0.288,0-0.536,0.075-0.744,0.224
		s-0.363,0.352-0.464,0.608h-0.664V21.036z"/>
	<path fill="#FFFFFF" d="M28.28,21.592c0.146-0.168,0.339-0.303,0.576-0.404c0.237-0.102,0.533-0.152,0.888-0.152
		s0.667,0.074,0.937,0.22c0.269,0.146,0.476,0.359,0.62,0.636c0.261,0.512,0.392,1.2,0.392,2.064c0,1.109-0.197,1.896-0.592,2.36
		c-0.325,0.373-0.798,0.56-1.416,0.56c-1.136,0-1.789-0.664-1.96-1.992c-0.032-0.277-0.048-0.588-0.048-0.932
		c0-0.344,0.017-0.653,0.052-0.928c0.034-0.275,0.099-0.54,0.192-0.796C28.013,21.972,28.134,21.76,28.28,21.592z M30.776,22.392
		c-0.083-0.232-0.216-0.408-0.4-0.528c-0.184-0.12-0.401-0.18-0.651-0.18c-0.251,0-0.458,0.043-0.62,0.128
		c-0.163,0.085-0.289,0.194-0.38,0.328s-0.163,0.306-0.216,0.516c-0.054,0.211-0.087,0.414-0.101,0.608
		c-0.013,0.195-0.02,0.425-0.02,0.692c0,0.267,0.007,0.498,0.02,0.692c0.014,0.195,0.047,0.397,0.101,0.608
		c0.053,0.21,0.125,0.383,0.216,0.516s0.217,0.243,0.38,0.328c0.162,0.085,0.355,0.128,0.58,0.128c0.224,0,0.417-0.043,0.58-0.128
		c0.162-0.085,0.29-0.194,0.384-0.328c0.093-0.133,0.164-0.307,0.212-0.52c0.085-0.341,0.128-0.728,0.128-1.16s-0.015-0.765-0.044-1
		S30.859,22.624,30.776,22.392z"/>
	<path fill="#FFFFFF" d="M35.188,22.42c0.603,0,1.103,0.207,1.5,0.62c0.397,0.414,0.596,0.955,0.596,1.624
		c0,0.669-0.2,1.219-0.6,1.648c-0.4,0.429-0.899,0.644-1.496,0.644c-0.373,0-0.7-0.089-0.98-0.268
		c-0.279-0.179-0.494-0.412-0.644-0.7v2.976h-0.729v-6.472h0.729v0.88c0.149-0.282,0.364-0.512,0.644-0.688
		C34.488,22.508,34.815,22.42,35.188,22.42z M35.048,26.332c0.408,0,0.758-0.153,1.049-0.46c0.29-0.307,0.436-0.709,0.436-1.208
		c0-0.499-0.146-0.892-0.436-1.18c-0.291-0.288-0.641-0.432-1.049-0.432c-0.407,0-0.757,0.149-1.048,0.448
		c-0.29,0.298-0.436,0.694-0.436,1.188c0,0.493,0.146,0.891,0.436,1.192C34.291,26.181,34.64,26.332,35.048,26.332z"/>
	<path fill="#FFFFFF" d="M41.324,22.492l-1.416,2.192l1.408,2.2h-0.823l-1.04-1.632l-0.969,1.632h-0.792l1.416-2.176l-1.416-2.216
		h0.824l1.048,1.64l0.977-1.64H41.324z"/>
</g>
</svg>
