<?xml version="1.0" encoding="utf-8"?>
<!-- Generator: Adobe Illustrator 23.1.1, SVG Export Plug-In . SVG Version: 6.00 Build 0)  -->
<svg version="1.1" id="Ebene_1" xmlns="http://www.w3.org/2000/svg" xmlns:xlink="http://www.w3.org/1999/xlink" x="0px" y="0px"
	 viewBox="0 0 90 90" enable-background="new 0 0 90 90" xml:space="preserve">
<rect fill="#329C7D" width="90" height="90"/>
<path fill="#FFFFFF" d="M15.8,69.9c0,3.1,2.6,5.699,5.7,5.699h20.9V49H15.8V69.9z M23.1,62.1c0-0.1,0-0.3,0-0.399h-1.4
	c-0.8,0-1.4-0.601-1.4-1.4c0-0.8,0.6-1.399,1.4-1.399h1.9c0.4-1.101,1-2.2,1.9-3c1.6-1.7,3.6-2.601,6-2.601c2.4,0,4.7,1.2,6.3,3.101
	c0.5,0.6,0.4,1.5-0.2,2c-0.6,0.5-1.5,0.399-2-0.2c-1-1.3-2.5-2.101-4.1-2.101c-1.4-0.1-2.8,0.601-3.9,1.7
	c-0.3,0.3-0.6,0.7-0.8,1.101h6.4c0.8,0,1.4,0.6,1.4,1.399c0,0.8-0.6,1.4-1.4,1.4H26c0,0.1,0,0.3,0,0.399c0,0.2,0,0.4,0.1,0.601h7.1
	c0.8,0,1.4,0.6,1.4,1.399c0,0.801-0.6,1.4-1.4,1.4H27c1,1.6,2.6,2.7,4.5,2.7c1.6,0.1,3.1-0.7,4.1-2c0.5-0.601,1.4-0.7,2-0.2
	c0.6,0.5,0.7,1.4,0.2,2c-1.6,1.9-3.9,3-6.3,3h-0.1c-3.4,0-6.4-2.3-7.6-5.5h-2c-0.8,0-1.4-0.6-1.4-1.4c0-0.8,0.6-1.399,1.4-1.399h1.5
	C23.1,62.6,23.1,62.4,23.1,62.1z M45.7,75.6H66.6c3.101,0,5.7-2.5,5.7-5.699V49H45.7V75.6z M51.9,62.1c0-0.1,0-0.3,0-0.399h-1.4
	c-0.8,0-1.4-0.601-1.4-1.4c0-0.8,0.601-1.399,1.4-1.399h1.9c0.399-1.101,1-2.2,1.899-3c1.601-1.7,3.7-2.601,6-2.601
	c2.4,0,4.7,1.2,6.3,3.101c0.5,0.6,0.4,1.5-0.199,2c-0.601,0.5-1.5,0.399-2-0.2c-1-1.3-2.5-2.101-4.101-2.101
	C58.8,56,57.5,56.7,56.4,57.8C56.1,58.1,55.8,58.5,55.6,58.9H62c0.8,0,1.4,0.6,1.4,1.399c0,0.8-0.601,1.4-1.4,1.4h-7.2
	c0,0.1,0,0.3,0,0.399c0,0.2,0,0.4,0.101,0.601H62c0.8,0,1.4,0.6,1.4,1.399c0,0.801-0.601,1.4-1.4,1.4h-6.2c1,1.6,2.601,2.7,4.5,2.7
	c1.601,0.1,3.101-0.7,4.101-2c0.5-0.601,1.399-0.7,2-0.2c0.6,0.5,0.699,1.4,0.199,2c-1.6,1.9-3.899,3-6.3,3h-0.1
	c-3.4,0-6.4-2.3-7.601-5.5h-2c-0.8,0-1.399-0.6-1.399-1.4c0-0.8,0.6-1.399,1.399-1.399H52C52,62.6,51.9,62.4,51.9,62.1z M78.2,39
	l-1.8-20.9c-0.301-3.1-3-5.4-6.2-5.2l-20.9,1.8l2.3,26.6L78.2,39z M55.4,24.5l1.899-0.2c0.9-3.4,3.8-6,7.3-6.3
	c2.4-0.2,4.801,0.8,6.5,2.6c0.5,0.6,0.5,1.5-0.1,2c-0.6,0.5-1.5,0.5-2-0.1c-1.1-1.2-2.7-1.8-4.3-1.7c-2,0.2-3.601,1.4-4.4,3.2
	l6.4-0.5c0.8-0.1,1.5,0.5,1.5,1.3c0.1,0.8-0.5,1.5-1.3,1.5L59.8,27c0,0.1,0,0.3,0,0.4c0,0.2,0.101,0.4,0.101,0.7l7.1-0.6
	c0.8-0.1,1.5,0.5,1.5,1.3c0.1,0.8-0.5,1.5-1.3,1.5L61,30.8c1.1,1.5,2.9,2.4,4.7,2.2c1.6-0.1,3-1,3.899-2.3c0.4-0.6,1.301-0.8,2-0.4
	c0.601,0.4,0.801,1.3,0.4,2c-1.4,2.1-3.6,3.4-6,3.6c-0.2,0-0.4,0-0.6,0c-3.2,0-6-1.9-7.5-4.8L55.8,31.3h-0.1c-0.7,0-1.4-0.6-1.4-1.3
	c-0.1-0.8,0.5-1.5,1.3-1.5l1.4-0.1c0-0.2-0.1-0.4-0.1-0.7c0-0.1,0-0.2,0-0.4l-1.4,0.1h-0.1c-0.7,0-1.4-0.6-1.4-1.3
	C54,25.3,54.6,24.6,55.4,24.5z M15.8,24.8v20.9h26.6V19.1H21.5C18.4,19.1,15.8,21.7,15.8,24.8z M23.7,29.5c1.2-3.3,4.2-5.6,7.7-5.6
	h0.1c2.4,0,4.7,1.2,6.3,3.1c0.5,0.6,0.4,1.5-0.2,2c-0.6,0.5-1.5,0.4-2-0.2c-1-1.3-2.5-2.1-4.1-2.1l0,0c-1.9,0-3.7,1.1-4.6,2.8h6.4
	c0.8,0,1.4,0.6,1.4,1.4c0,0.8-0.6,1.4-1.4,1.4h-7.2c0,0.1,0,0.3,0,0.4c0,0.2,0,0.4,0.1,0.6h7.1c0.8,0,1.4,0.6,1.4,1.4
	c0,0.8-0.6,1.4-1.4,1.4h-6.2c1,1.6,2.6,2.7,4.5,2.7l0,0c1.6,0,3-0.7,4.1-2c0.5-0.6,1.4-0.7,2-0.2c0.6,0.5,0.7,1.4,0.2,2
	c-1.6,1.9-3.9,3-6.3,3h-0.1c-3.4,0-6.4-2.3-7.6-5.5h-2c-0.8,0-1.4-0.6-1.4-1.4c0-0.8,0.6-1.4,1.4-1.4h1.5c0-0.2-0.1-0.4-0.1-0.7
	c0-0.1,0-0.3,0-0.4h-1.4c-0.8,0-1.4-0.6-1.4-1.4c0-0.8,0.6-1.4,1.4-1.4h1.8V29.5z"/>
</svg>
