<?xml version="1.0" encoding="utf-8"?>
<!-- Generator: Adobe Illustrator 24.3.0, SVG Export Plug-In . SVG Version: 6.00 Build 0)  -->
<svg version="1.1" id="Ebene_1" xmlns="http://www.w3.org/2000/svg" xmlns:xlink="http://www.w3.org/1999/xlink" x="0px" y="0px"
	 viewBox="0 0 35.7 30.1" style="enable-background:new 0 0 35.7 30.1;" xml:space="preserve">
<style type="text/css">
	.st0{fill:#646464;}
</style>
<title>cart_quelle</title>
<g>
	<path class="st0" d="M33.7,3H10.5v1h23.2c0.1,0,0.2,0,0.3,0c0.5,0.2,0.8,0.7,0.7,1.2l-3.4,11.2c-0.1,0.4-0.5,0.7-1,0.7h-18L7.1,0H0
		v1h6.3l6.3,21c0.3,0.8,1,1.4,1.9,1.4h16.1v-1h-16c-0.5,0-0.9-0.3-1-0.7l-1.1-3.5h17.7c0.9,0,1.7-0.6,1.9-1.4l3.4-11.2
		c0.1-0.2,0.1-0.4,0.1-0.6C35.7,3.9,34.8,3,33.7,3z"/>
	<path class="st0" d="M13.4,30.1c-1.5,0-2.8-1.2-2.7-2.8s1.2-2.8,2.8-2.8s2.7,1.2,2.7,2.8S15,30.1,13.4,30.1L13.4,30.1z M13.4,25.6
		c-1,0-1.8,0.8-1.8,1.8s0.8,1.8,1.8,1.8s1.8-0.8,1.8-1.8C15.2,26.4,14.4,25.6,13.4,25.6L13.4,25.6z"/>
	<path class="st0" d="M28.4,30.1c-1.5,0-2.8-1.2-2.8-2.8s1.2-2.8,2.8-2.8s2.8,1.2,2.8,2.8S29.9,30.1,28.4,30.1z M28.4,25.6
		c-1,0-1.8,0.8-1.8,1.8s0.8,1.8,1.8,1.8s1.8-0.8,1.8-1.8C30.1,26.4,29.4,25.6,28.4,25.6L28.4,25.6z"/>
</g>
</svg>
