<?xml version="1.0" encoding="utf-8"?>
<!-- Generator: Adobe Illustrator 23.1.1, SVG Export Plug-In . SVG Version: 6.00 Build 0)  -->
<svg version="1.1" id="Ebene_1" xmlns="http://www.w3.org/2000/svg" xmlns:xlink="http://www.w3.org/1999/xlink" x="0px" y="0px"
	 viewBox="0 0 3000 600" enable-background="new 0 0 3000 600" xml:space="preserve">
<g>
	<rect fill="#336666" width="3000" height="600"/>
</g>
<g>
	<path fill="#FFFFFF" d="M1251.505,313.051c2.5,1.6,8.3,4.1,14.401,4.1c11.3,0,14.801-7.2,14.701-12.601
		c-0.1-9.101-8.3-13.001-16.801-13.001h-4.9v-6.6h4.9c6.4,0,14.5-3.3,14.5-11.001c0-5.2-3.3-9.8-11.4-9.8
		c-5.201,0-10.201,2.3-13.001,4.3l-2.3-6.4c3.4-2.5,10.001-5,17.001-5c12.801,0,18.601,7.601,18.601,15.501
		c0,6.7-4,12.401-12.001,15.301v0.2c8,1.6,14.501,7.601,14.501,16.701c0,10.4-8.101,19.501-23.702,19.501
		c-7.3,0-13.701-2.3-16.901-4.4L1251.505,313.051z"/>
	<path fill="#FFFFFF" d="M1343.906,289.949c0,22.102-8.201,34.302-22.602,34.302c-12.701,0-21.301-11.901-21.501-33.402
		c0-21.802,9.401-33.802,22.602-33.802C1336.105,257.047,1343.906,269.248,1343.906,289.949z M1308.604,290.949
		c0,16.901,5.2,26.502,13.201,26.502c9,0,13.301-10.501,13.301-27.102c0-16.001-4.1-26.501-13.201-26.501
		C1314.204,263.848,1308.604,273.249,1308.604,290.949z"/>
	<path fill="#FFFFFF" d="M1395.205,289.949c0,22.102-8.201,34.302-22.602,34.302c-12.701,0-21.301-11.901-21.501-33.402
		c0-21.802,9.401-33.802,22.602-33.802C1387.404,257.047,1395.205,269.248,1395.205,289.949z M1359.902,290.949
		c0,16.901,5.2,26.502,13.201,26.502c9,0,13.301-10.501,13.301-27.102c0-16.001-4.1-26.501-13.201-26.501
		C1365.502,263.848,1359.902,273.249,1359.902,290.949z"/>
	<path fill="#FFFFFF" d="M1446.503,289.949c0,22.102-8.201,34.302-22.602,34.302c-12.701,0-21.301-11.901-21.501-33.402
		c0-21.802,9.401-33.802,22.602-33.802C1438.702,257.047,1446.503,269.248,1446.503,289.949z M1411.201,290.949
		c0,16.901,5.2,26.502,13.201,26.502c9,0,13.301-10.501,13.301-27.102c0-16.001-4.1-26.501-13.201-26.501
		C1416.801,263.848,1411.201,273.249,1411.201,290.949z"/>
	<path fill="#FFFFFF" d="M1461.5,274.749l6.9,10.4c1.8,2.7,3.3,5.2,4.9,7.9h0.3c1.6-2.9,3.2-5.4,4.8-8l6.8-10.3h9.5l-16.5,23.401
		l17.001,25.001h-10l-7.1-10.901c-1.9-2.8-3.5-5.5-5.201-8.4h-0.2c-1.6,2.9-3.3,5.5-5.101,8.4l-7,10.901h-9.701l17.201-24.702
		l-16.401-23.701L1461.5,274.749L1461.5,274.749z"/>
	<path fill="#FFFFFF" d="M1538,264.348c-1.8-0.1-4.1,0-6.601,0.4c-13.801,2.3-21.101,12.401-22.601,23.102h0.3
		c3.1-4.1,8.5-7.5,15.701-7.5c11.5,0,19.601,8.301,19.601,21.001c0,11.901-8.101,22.901-21.601,22.901
		c-13.901,0-23.001-10.801-23.001-27.702c0-12.801,4.6-22.901,11-29.302c5.4-5.3,12.601-8.601,20.801-9.601c2.6-0.4,4.8-0.5,6.4-0.5
		L1538,264.348L1538,264.348z M1535.5,301.85c0-9.301-5.3-14.901-13.401-14.901c-5.3,0-10.201,3.3-12.601,8c-0.6,1-1,2.3-1,3.9
		c0.2,10.7,5.101,18.601,14.301,18.601C1530.4,317.451,1535.5,311.151,1535.5,301.85z"/>
	<path fill="#FFFFFF" d="M1595.4,289.949c0,22.102-8.201,34.302-22.602,34.302c-12.701,0-21.301-11.901-21.501-33.402
		c0-21.802,9.401-33.802,22.602-33.802C1587.599,257.047,1595.4,269.248,1595.4,289.949z M1560.098,290.949
		c0,16.901,5.2,26.502,13.201,26.502c9,0,13.301-10.501,13.301-27.102c0-16.001-4.1-26.501-13.201-26.501
		C1565.698,263.848,1560.098,273.249,1560.098,290.949z"/>
	<path fill="#FFFFFF" d="M1646.698,289.949c0,22.102-8.201,34.302-22.602,34.302c-12.701,0-21.301-11.901-21.501-33.402
		c0-21.802,9.401-33.802,22.602-33.802C1638.897,257.047,1646.698,269.248,1646.698,289.949z M1611.396,290.949
		c0,16.901,5.2,26.502,13.201,26.502c9,0,13.301-10.501,13.301-27.102c0-16.001-4.1-26.501-13.201-26.501
		C1616.996,263.848,1611.396,273.249,1611.396,290.949z"/>
	<path fill="#FFFFFF" d="M1657.594,290.549c0-6.2-0.2-11.201-0.4-15.801h7.9l0.4,8.3h0.2c3.6-5.9,9.301-9.4,17.201-9.4
		c11.701,0,20.501,9.9,20.501,24.602c0,17.401-10.601,26.001-22.001,26.001c-6.4,0-12.001-2.8-14.901-7.601h-0.2v26.302h-8.701
		L1657.594,290.549L1657.594,290.549z M1666.295,303.45c0,1.3,0.2,2.5,0.4,3.6c1.6,6.101,6.9,10.301,13.201,10.301
		c9.301,0,14.701-7.601,14.701-18.701c0-9.701-5.101-18.001-14.401-18.001c-6,0-11.601,4.3-13.301,10.9c-0.3,1.1-0.6,2.4-0.6,3.601
		L1666.295,303.45L1666.295,303.45z"/>
	<path fill="#FFFFFF" d="M1717.194,274.749l6.9,10.4c1.8,2.7,3.3,5.2,4.9,7.9h0.3c1.6-2.9,3.2-5.4,4.8-8l6.8-10.3h9.5
		l-16.501,23.401l17.001,25.001h-10l-7.1-10.901c-1.9-2.8-3.5-5.5-5.201-8.4h-0.2c-1.6,2.9-3.3,5.5-5.101,8.4l-7,10.901h-9.701
		l17.201-24.702l-16.401-23.701L1717.194,274.749L1717.194,274.749z"/>
</g>
</svg>
