<?xml version="1.0" encoding="utf-8"?>
<!-- Generator: Adobe Illustrator 23.1.1, SVG Export Plug-In . SVG Version: 6.00 Build 0)  -->
<svg version="1.1" id="Ebene_1" xmlns="http://www.w3.org/2000/svg" xmlns:xlink="http://www.w3.org/1999/xlink" x="0px" y="0px"
	 viewBox="0 0 300 200" enable-background="new 0 0 300 200" xml:space="preserve">
<g>
	<rect fill="#2E3192" width="300" height="200"/>
</g>
<g>
	<path fill="#FFFFFF" d="M109.887,102.35c0.45,0.288,1.494,0.738,2.593,0.738c2.035,0,2.665-1.297,2.646-2.269
		c-0.018-1.638-1.494-2.34-3.025-2.34h-0.882V97.29h0.882c1.152,0,2.611-0.594,2.611-1.98c0-0.937-0.594-1.765-2.052-1.765
		c-0.937,0-1.837,0.414-2.341,0.774l-0.414-1.152c0.612-0.45,1.8-0.9,3.061-0.9c2.305,0,3.349,1.368,3.349,2.791
		c0,1.207-0.72,2.233-2.161,2.755v0.036c1.44,0.288,2.611,1.368,2.611,3.007c0,1.873-1.458,3.511-4.267,3.511
		c-1.314,0-2.467-0.414-3.043-0.792L109.887,102.35z"/>
	<path fill="#FFFFFF" d="M126.521,98.191c0,3.979-1.476,6.176-4.069,6.176c-2.287,0-3.835-2.143-3.871-6.014
		c0-3.925,1.692-6.085,4.069-6.085C125.116,92.267,126.521,94.463,126.521,98.191z M120.165,98.37c0,3.043,0.937,4.771,2.377,4.771
		c1.621,0,2.395-1.891,2.395-4.879c0-2.881-0.738-4.771-2.376-4.771C121.174,93.491,120.165,95.183,120.165,98.37z"/>
	<path fill="#FFFFFF" d="M135.754,98.191c0,3.979-1.476,6.176-4.069,6.176c-2.287,0-3.835-2.143-3.871-6.014
		c0-3.925,1.692-6.085,4.069-6.085C134.35,92.267,135.754,94.463,135.754,98.191z M129.398,98.37c0,3.043,0.937,4.771,2.377,4.771
		c1.621,0,2.395-1.891,2.395-4.879c0-2.881-0.738-4.771-2.376-4.771C130.407,93.491,129.398,95.183,129.398,98.37z"/>
	<path fill="#FFFFFF" d="M138.452,95.453l1.242,1.873c0.324,0.486,0.594,0.936,0.882,1.422h0.054
		c0.288-0.522,0.576-0.973,0.864-1.44l1.224-1.855h1.71l-2.971,4.213l3.061,4.501h-1.801l-1.278-1.962
		c-0.342-0.504-0.63-0.991-0.937-1.513h-0.036c-0.288,0.522-0.594,0.99-0.918,1.513l-1.26,1.962h-1.747l3.097-4.447l-2.953-4.268
		H138.452z"/>
	<path fill="#FFFFFF" d="M145.544,104.168v-0.972l1.243-1.207c2.989-2.845,4.339-4.357,4.357-6.122c0-1.188-0.576-2.287-2.322-2.287
		c-1.062,0-1.945,0.54-2.485,0.99l-0.504-1.117c0.811-0.684,1.963-1.188,3.313-1.188c2.521,0,3.583,1.729,3.583,3.403
		c0,2.161-1.567,3.907-4.033,6.284l-0.937,0.864v0.036h5.258v1.314H145.544z"/>
	<path fill="#FFFFFF" d="M162.556,98.191c0,3.979-1.476,6.176-4.069,6.176c-2.287,0-3.835-2.143-3.871-6.014
		c0-3.925,1.692-6.085,4.069-6.085C161.152,92.267,162.556,94.463,162.556,98.191z M156.2,98.37c0,3.043,0.937,4.771,2.377,4.771
		c1.621,0,2.395-1.891,2.395-4.879c0-2.881-0.738-4.771-2.376-4.771C157.209,93.491,156.2,95.183,156.2,98.37z"/>
	<path fill="#FFFFFF" d="M171.789,98.191c0,3.979-1.476,6.176-4.069,6.176c-2.287,0-3.835-2.143-3.871-6.014
		c0-3.925,1.692-6.085,4.069-6.085C170.385,92.267,171.789,94.463,171.789,98.191z M165.433,98.37c0,3.043,0.937,4.771,2.377,4.771
		c1.621,0,2.395-1.891,2.395-4.879c0-2.881-0.738-4.771-2.376-4.771C166.442,93.491,165.433,95.183,165.433,98.37z"/>
	<path fill="#FFFFFF" d="M173.749,98.299c0-1.117-0.036-2.017-0.072-2.845h1.422l0.072,1.495h0.036
		c0.648-1.062,1.674-1.692,3.097-1.692c2.107,0,3.691,1.783,3.691,4.429c0,3.133-1.909,4.682-3.961,4.682
		c-1.152,0-2.161-0.504-2.683-1.369h-0.036v4.735h-1.566V98.299z M175.316,100.621c0,0.234,0.036,0.45,0.072,0.648
		c0.288,1.098,1.243,1.854,2.377,1.854c1.674,0,2.647-1.368,2.647-3.367c0-1.747-0.918-3.241-2.593-3.241
		c-1.081,0-2.089,0.774-2.395,1.963c-0.054,0.198-0.108,0.432-0.108,0.648V100.621z"/>
	<path fill="#FFFFFF" d="M184.477,95.453l1.242,1.873c0.324,0.486,0.594,0.936,0.882,1.422h0.054
		c0.288-0.522,0.576-0.973,0.864-1.44l1.224-1.855h1.71l-2.971,4.213l3.061,4.501h-1.801l-1.278-1.962
		c-0.342-0.504-0.63-0.991-0.936-1.513h-0.036c-0.288,0.522-0.594,0.99-0.918,1.513l-1.26,1.962h-1.747l3.097-4.447l-2.953-4.268
		H184.477z"/>
</g>
</svg>
