<?xml version="1.0" encoding="utf-8"?>
<!-- Generator: Adobe Illustrator 24.3.0, SVG Export Plug-In . SVG Version: 6.00 Build 0)  -->
<svg version="1.1" id="Ebene_1" xmlns="http://www.w3.org/2000/svg" xmlns:xlink="http://www.w3.org/1999/xlink" x="0px" y="0px"
	 viewBox="0 0 300 200" style="enable-background:new 0 0 300 200;" xml:space="preserve">
<style type="text/css">
	.st0{fill:#EEC980;}
	.st1{fill:#FFFFFF;}
</style>
<g>
	<rect class="st0" width="300" height="200"/>
</g>
<g>
	<path class="st1" d="M109.89,102.35c0.45,0.29,1.49,0.74,2.59,0.74c2.04,0,2.67-1.3,2.65-2.27c-0.02-1.64-1.49-2.34-3.03-2.34
		h-0.88v-1.19h0.88c1.15,0,2.61-0.59,2.61-1.98c0-0.94-0.59-1.76-2.05-1.76c-0.94,0-1.84,0.41-2.34,0.77l-0.41-1.15
		c0.61-0.45,1.8-0.9,3.06-0.9c2.31,0,3.35,1.37,3.35,2.79c0,1.21-0.72,2.23-2.16,2.75v0.04c1.44,0.29,2.61,1.37,2.61,3.01
		c0,1.87-1.46,3.51-4.27,3.51c-1.31,0-2.47-0.41-3.04-0.79L109.89,102.35z"/>
	<path class="st1" d="M126.52,98.19c0,3.98-1.48,6.18-4.07,6.18c-2.29,0-3.83-2.14-3.87-6.01c0-3.93,1.69-6.08,4.07-6.08
		C125.12,92.27,126.52,94.46,126.52,98.19z M120.17,98.37c0,3.04,0.94,4.77,2.38,4.77c1.62,0,2.39-1.89,2.39-4.88
		c0-2.88-0.74-4.77-2.38-4.77C121.17,93.49,120.17,95.18,120.17,98.37z"/>
	<path class="st1" d="M135.75,98.19c0,3.98-1.48,6.18-4.07,6.18c-2.29,0-3.83-2.14-3.87-6.01c0-3.93,1.69-6.08,4.07-6.08
		C134.35,92.27,135.75,94.46,135.75,98.19z M129.4,98.37c0,3.04,0.94,4.77,2.38,4.77c1.62,0,2.4-1.89,2.4-4.88
		c0-2.88-0.74-4.77-2.38-4.77C130.41,93.49,129.4,95.18,129.4,98.37z"/>
	<path class="st1" d="M138.45,95.45l1.24,1.87c0.32,0.49,0.59,0.94,0.88,1.42h0.05c0.29-0.52,0.58-0.97,0.86-1.44l1.22-1.86h1.71
		l-2.97,4.21l3.06,4.5h-1.8l-1.28-1.96c-0.34-0.5-0.63-0.99-0.94-1.51h-0.04c-0.29,0.52-0.59,0.99-0.92,1.51l-1.26,1.96h-1.75
		l3.1-4.45l-2.95-4.27L138.45,95.45L138.45,95.45z"/>
	<path class="st1" d="M145.54,104.17v-0.97l1.24-1.21c2.99-2.85,4.34-4.36,4.36-6.12c0-1.19-0.58-2.29-2.32-2.29
		c-1.06,0-1.95,0.54-2.49,0.99l-0.5-1.12c0.81-0.68,1.96-1.19,3.31-1.19c2.52,0,3.58,1.73,3.58,3.4c0,2.16-1.57,3.91-4.03,6.28
		l-0.94,0.86v0.04h5.26v1.31L145.54,104.17L145.54,104.17z"/>
	<path class="st1" d="M162.56,98.19c0,3.98-1.48,6.18-4.07,6.18c-2.29,0-3.84-2.14-3.87-6.01c0-3.93,1.69-6.08,4.07-6.08
		C161.15,92.27,162.56,94.46,162.56,98.19z M156.2,98.37c0,3.04,0.94,4.77,2.38,4.77c1.62,0,2.4-1.89,2.4-4.88
		c0-2.88-0.74-4.77-2.38-4.77C157.21,93.49,156.2,95.18,156.2,98.37z"/>
	<path class="st1" d="M171.79,98.19c0,3.98-1.48,6.18-4.07,6.18c-2.29,0-3.84-2.14-3.87-6.01c0-3.93,1.69-6.08,4.07-6.08
		C170.38,92.27,171.79,94.46,171.79,98.19z M165.43,98.37c0,3.04,0.94,4.77,2.38,4.77c1.62,0,2.4-1.89,2.4-4.88
		c0-2.88-0.74-4.77-2.38-4.77C166.44,93.49,165.43,95.18,165.43,98.37z"/>
	<path class="st1" d="M173.75,98.3c0-1.12-0.04-2.02-0.07-2.85h1.42l0.07,1.5h0.04c0.65-1.06,1.67-1.69,3.1-1.69
		c2.11,0,3.69,1.78,3.69,4.43c0,3.13-1.91,4.68-3.96,4.68c-1.15,0-2.16-0.5-2.68-1.37h-0.04v4.74h-1.57V98.3z M175.32,100.62
		c0,0.23,0.04,0.45,0.07,0.65c0.29,1.1,1.24,1.85,2.38,1.85c1.67,0,2.65-1.37,2.65-3.37c0-1.75-0.92-3.24-2.59-3.24
		c-1.08,0-2.09,0.77-2.4,1.96c-0.05,0.2-0.11,0.43-0.11,0.65V100.62z"/>
	<path class="st1" d="M184.48,95.45l1.24,1.87c0.32,0.49,0.59,0.94,0.88,1.42h0.05c0.29-0.52,0.58-0.97,0.86-1.44l1.22-1.86h1.71
		l-2.97,4.21l3.06,4.5h-1.8l-1.28-1.96c-0.34-0.5-0.63-0.99-0.94-1.51h-0.04c-0.29,0.52-0.59,0.99-0.92,1.51l-1.26,1.96h-1.75
		l3.1-4.45l-2.95-4.27L184.48,95.45L184.48,95.45z"/>
</g>
</svg>
