<?xml version="1.0" encoding="utf-8"?>
<!-- Generator: Adobe Illustrator 24.3.0, SVG Export Plug-In . SVG Version: 6.00 Build 0)  -->
<svg version="1.1" id="Ebene_1" xmlns="http://www.w3.org/2000/svg" xmlns:xlink="http://www.w3.org/1999/xlink" x="0px" y="0px"
	 viewBox="0 0 450 100" style="enable-background:new 0 0 450 100;" xml:space="preserve">
<g>
	<path d="M10.7,70.4c0,1.4-0.5,2.6-1.5,3.7s-2.3,1.6-3.8,1.6s-2.9-0.5-3.8-1.6C0.5,73,0,71.8,0,70.4c0-1.4,0.5-2.6,1.5-3.7
		S3.7,65,5.3,65s2.9,0.5,3.8,1.6S10.7,69,10.7,70.4z"/>
	<path d="M32.1,0.6V100h-5.9V0.6H32.1z"/>
	<path d="M111.6,67.3c-2,3-4.5,5.2-7.7,6.8c-3.2,1.5-6.4,2.3-9.8,2.3c-3.6,0-6.9-0.6-9.8-1.9c-2.9-1.3-5.4-3-7.5-5.2
		c-2.1-2.2-3.7-4.8-4.8-7.7c-1.2-3-1.7-6.2-1.7-9.7c0-3.4,0.6-6.7,1.7-9.7c1.2-3,2.8-5.6,4.8-7.7c2.1-2.2,4.6-3.9,7.5-5.2
		c2.9-1.3,6.2-1.9,9.8-1.9c3.4,0,6.6,0.8,9.8,2.3c3.2,1.6,5.7,3.9,7.7,6.9h0.2V0h6.7v75.2h-6.7v-7.8L111.6,67.3L111.6,67.3z
		 M77.3,51.9c0,2.6,0.4,5,1.2,7.3c0.8,2.3,1.9,4.3,3.4,6s3.3,3,5.5,4c2.2,1,4.6,1.4,7.4,1.4c2.6,0,4.9-0.5,7.1-1.4
		c2.2-1,4.1-2.3,5.6-3.9c1.6-1.7,2.8-3.6,3.7-5.9c0.9-2.3,1.3-4.8,1.3-7.4c0-2.7-0.5-5.1-1.3-7.4c-0.9-2.3-2.1-4.3-3.7-6
		c-1.6-1.7-3.5-3-5.6-4c-2.2-1-4.5-1.4-7.1-1.4c-2.8,0-5.2,0.5-7.4,1.5c-2.2,1-4,2.3-5.5,4c-1.5,1.7-2.6,3.7-3.4,6
		C77.7,46.9,77.3,49.3,77.3,51.9z"/>
	<path d="M178.5,50.5c0,0.5,0,1,0,1.5c0,0.5,0,1.1-0.1,1.7h-38.3c0.1,2.3,0.5,4.5,1.4,6.6c0.9,2.1,2,3.9,3.6,5.4
		c1.5,1.5,3.3,2.7,5.3,3.6c2,0.9,4.2,1.3,6.6,1.3c3.5,0,6.5-0.8,9-2.4c2.5-1.6,4.5-3.5,5.8-5.6l5,4c-2.8,3.5-5.8,6-9.1,7.6
		s-6.9,2.3-10.7,2.3c-3.4,0-6.6-0.6-9.5-1.8c-2.9-1.2-5.4-2.9-7.5-5.1c-2.1-2.2-3.8-4.8-5-7.7c-1.2-3-1.8-6.2-1.8-9.7
		c0-3.5,0.6-6.8,1.8-9.7c1.2-3,2.8-5.6,4.9-7.7c2.1-2.2,4.6-3.9,7.4-5.1c2.8-1.2,5.9-1.8,9.2-1.8c3.6,0,6.8,0.6,9.6,1.8
		c2.8,1.2,5.1,2.9,6.9,5c1.9,2.1,3.2,4.5,4.2,7.3C178,44.3,178.5,47.3,178.5,50.5z M171.7,48.3c-0.2-4.4-1.6-8-4.2-10.9
		c-2.6-2.9-6.3-4.3-11.1-4.3c-2.2,0-4.3,0.4-6.2,1.2c-1.9,0.8-3.6,1.9-5,3.4c-1.4,1.4-2.6,3-3.5,4.9c-0.9,1.8-1.4,3.7-1.5,5.7
		L171.7,48.3L171.7,48.3z"/>
	<path d="M211.9,75.2h-7.4l-18.9-46.5h7.5l15,39.4h0.2l15.1-39.4h7.2L211.9,75.2z"/>
	<path d="M261.9,34.3h-13v27.1c0,1.7,0.2,3.1,0.5,4.3s0.8,2,1.4,2.6c0.6,0.6,1.4,1.1,2.2,1.3c0.9,0.2,1.8,0.4,2.8,0.4
		c0.9,0,1.9-0.1,2.9-0.4s2-0.6,2.9-1.1l0.3,5.9c-1.2,0.5-2.4,0.8-3.7,1s-2.7,0.4-4.2,0.4c-1.3,0-2.6-0.2-3.9-0.5
		c-1.4-0.3-2.7-1-3.8-1.9c-1.2-0.9-2.2-2.2-2.9-3.8c-0.8-1.6-1.1-3.7-1.1-6.3v-29h-9.6v-5.7h9.6V15.5h6.7v13.1h13L261.9,34.3
		L261.9,34.3z"/>
	<path d="M318.3,51.9c0,3.5-0.6,6.8-1.8,9.7s-2.9,5.6-5.1,7.7c-2.2,2.2-4.8,3.9-7.8,5.1s-6.4,1.8-10,1.8c-3.6,0-6.8-0.6-9.9-1.8
		c-3-1.2-5.6-2.9-7.8-5.1c-2.2-2.2-3.9-4.8-5.1-7.7s-1.8-6.2-1.8-9.7c0-3.5,0.6-6.8,1.8-9.7c1.2-3,2.9-5.6,5.1-7.7
		c2.2-2.2,4.8-3.9,7.8-5.1c3-1.2,6.3-1.8,9.9-1.8c3.6,0,6.9,0.6,10,1.8c3,1.2,5.6,2.9,7.8,5.1c2.2,2.2,3.9,4.8,5.1,7.7
		C317.6,45.1,318.3,48.4,318.3,51.9z M311.1,51.9c0-2.6-0.4-5-1.2-7.3c-0.8-2.3-2-4.3-3.5-6c-1.5-1.7-3.4-3-5.5-4
		c-2.2-1-4.6-1.5-7.3-1.5c-2.7,0-5.1,0.5-7.3,1.5c-2.1,1-4,2.3-5.5,4c-1.5,1.7-2.7,3.7-3.5,6c-0.8,2.3-1.2,4.7-1.2,7.3
		c0,2.6,0.4,5,1.2,7.3c0.8,2.3,2,4.3,3.5,6c1.5,1.7,3.3,3,5.5,4c2.1,1,4.6,1.4,7.3,1.4c2.7,0,5.1-0.5,7.3-1.4c2.2-1,4-2.3,5.5-4
		s2.7-3.7,3.5-6C310.7,56.9,311.1,54.5,311.1,51.9z"/>
	<path d="M361.8,45.1c0-4-1-7-3.2-9c-2.1-2-5.2-3-9.2-3c-2.8,0-5.3,0.5-7.7,1.5c-2.4,1-4.4,2.3-6,4l-3.7-4.5
		c1.9-1.9,4.4-3.5,7.5-4.8c3.1-1.3,6.7-1.9,10.6-1.9c2.5,0,4.8,0.4,7,1c2.2,0.7,4.1,1.7,5.7,3.1c1.6,1.4,2.9,3.1,3.8,5.3
		c0.9,2.1,1.4,4.6,1.4,7.5v20.4c0,1.8,0.1,3.6,0.2,5.6c0.1,1.9,0.3,3.5,0.6,4.9h-6c-0.2-1.1-0.4-2.4-0.5-3.7
		c-0.1-1.3-0.2-2.6-0.2-3.9H362c-2.1,3.1-4.5,5.3-7.2,6.7s-5.9,2-9.6,2c-1.8,0-3.6-0.2-5.5-0.7c-1.9-0.5-3.6-1.3-5.1-2.4
		c-1.5-1.1-2.8-2.6-3.8-4.4c-1-1.8-1.5-4-1.5-6.6c0-3.6,0.9-6.4,2.7-8.5c1.8-2.1,4.2-3.7,7.3-4.7c3-1,6.5-1.7,10.4-2
		c3.9-0.3,8-0.5,12.2-0.5L361.8,45.1L361.8,45.1z M359.8,51.9c-2.8,0-5.6,0.1-8.3,0.4c-2.8,0.2-5.3,0.7-7.6,1.4
		c-2.3,0.7-4.1,1.7-5.6,3c-1.4,1.3-2.2,3.1-2.2,5.3c0,1.7,0.3,3,0.9,4.2c0.6,1.1,1.5,2,2.5,2.7c1,0.7,2.2,1.2,3.5,1.5
		s2.6,0.5,3.9,0.5c2.4,0,4.5-0.4,6.3-1.2c1.9-0.8,3.4-1.9,4.6-3.4c1.3-1.4,2.2-3.1,2.9-4.9c0.7-1.9,1-3.8,1-5.9v-3.5L359.8,51.9
		L359.8,51.9z"/>
	<path d="M409.9,39.7c-1-1.9-2.5-3.5-4.5-4.7c-2-1.2-4.3-1.8-6.9-1.8c-1.2,0-2.4,0.1-3.6,0.4c-1.2,0.3-2.2,0.7-3.2,1.3
		c-0.9,0.6-1.7,1.4-2.2,2.3c-0.6,0.9-0.8,2-0.8,3.3c0,2.2,0.9,3.9,2.7,5c1.8,1.2,4.6,2.1,8.4,2.9c5.5,1.1,9.5,2.8,12.1,4.9
		c2.6,2.2,3.9,5.1,3.9,8.7c0,2.7-0.5,4.9-1.5,6.7c-1,1.8-2.3,3.3-4,4.5c-1.6,1.2-3.5,2-5.6,2.5c-2.1,0.5-4.2,0.7-6.3,0.7
		c-3.5,0-6.9-0.7-10.2-2.2c-3.3-1.5-6-3.7-8.1-6.9l5.3-4c1.2,2.1,2.9,3.8,5.2,5.2c2.3,1.4,4.8,2.1,7.6,2.1c1.4,0,2.8-0.1,4.2-0.4
		c1.3-0.3,2.5-0.7,3.5-1.4c1-0.7,1.8-1.5,2.4-2.5c0.6-1,0.9-2.3,0.9-3.8c0-2.4-1.2-4.3-3.5-5.5c-2.3-1.2-5.7-2.4-10.1-3.4
		c-1.4-0.3-2.8-0.7-4.4-1.2c-1.5-0.5-3-1.2-4.3-2.2c-1.3-1-2.4-2.2-3.2-3.6c-0.9-1.4-1.3-3.3-1.3-5.5c0-2.4,0.5-4.4,1.4-6.1
		c0.9-1.7,2.2-3.1,3.7-4.2c1.5-1.1,3.3-1.9,5.3-2.4c2-0.5,4-0.8,6.1-0.8c3.2,0,6.4,0.7,9.4,2.2c3,1.4,5.3,3.5,6.8,6.2L409.9,39.7z"
		/>
	<path d="M450,34.3h-13v27.1c0,1.7,0.2,3.1,0.5,4.3c0.3,1.1,0.8,2,1.4,2.6c0.6,0.6,1.4,1.1,2.2,1.3c0.9,0.2,1.8,0.4,2.8,0.4
		c0.9,0,1.9-0.1,2.9-0.4c1-0.3,2-0.6,2.9-1.1l0.3,5.9c-1.2,0.5-2.4,0.8-3.7,1s-2.7,0.4-4.2,0.4c-1.3,0-2.6-0.2-3.9-0.5
		c-1.4-0.3-2.7-1-3.8-1.9c-1.2-0.9-2.2-2.2-2.9-3.8c-0.8-1.6-1.1-3.7-1.1-6.3v-29h-9.6v-5.7h9.6V15.5h6.7v13.1h13L450,34.3L450,34.3
		z"/>
</g>
</svg>
