<?xml version="1.0" encoding="utf-8"?>
<!-- Generator: Adobe Illustrator 23.1.1, SVG Export Plug-In . SVG Version: 6.00 Build 0)  -->
<svg version="1.1" id="Ebene_1" xmlns="http://www.w3.org/2000/svg" xmlns:xlink="http://www.w3.org/1999/xlink" x="0px" y="0px"
	 viewBox="0 0 28 20" enable-background="new 0 0 28 20" xml:space="preserve">
<path d="M2,4h24c1.105,0,2-0.895,2-2s-0.895-2-2-2H2C0.895,0,0,0.895,0,2S0.895,4,2,4z M26,8H2c-1.105,0-2,0.895-2,2s0.895,2,2,2h24
	c1.105,0,2-0.895,2-2S27.105,8,26,8z M26,16H2c-1.105,0-2,0.895-2,2s0.895,2,2,2h24c1.105,0,2-0.895,2-2S27.105,16,26,16z"/>
</svg>
