<svg id="Ebene_1" data-name="Ebene 1" xmlns="http://www.w3.org/2000/svg" viewBox="0 0 1028 262"><defs><style>.cls-1{fill:#009c7c;}.cls-2{fill:#fff;}.cls-3{fill:#e6f1ed;}.cls-4{fill:#329c7d;}.cls-5{fill:#555;}</style></defs><title>TZ_header_landingpage_1028x262px_pfade</title><rect class="cls-1" width="262" height="262"/><path class="cls-2" d="M46,203.49a16.78,16.78,0,0,0,16.6,16.59h60.84V142.64H46Zm21.26-22.71v-1.16H63.17a4.08,4.08,0,1,1,0-8.15H68.7a21.34,21.34,0,0,1,5.53-8.74,23.12,23.12,0,0,1,17.47-7.57c7,0,13.68,3.5,18.34,9a4.14,4.14,0,0,1-6.4,5.24,15.18,15.18,0,0,0-11.94-6.12c-4.08-.29-8.15,1.75-11.35,4.95A12.59,12.59,0,0,0,78,171.47H96.65a4.08,4.08,0,0,1,0,8.15h-21v1.16a3.74,3.74,0,0,0,.29,1.75H96.65a4.08,4.08,0,0,1,0,8.15H78.6c2.91,4.65,7.57,7.86,13.1,7.86a14.13,14.13,0,0,0,11.94-5.82A4.14,4.14,0,1,1,110,198a24.06,24.06,0,0,1-18.34,8.73h-.29c-9.9,0-18.63-6.7-22.13-16H63.46a4.08,4.08,0,0,1,0-8.15h4.37C67.25,182.23,67.25,181.65,67.25,180.78ZM133,220.08h60.84a16.59,16.59,0,0,0,16.59-16.59V142.64H133Zm18.05-39.3v-1.16H147a4.08,4.08,0,1,1,0-8.15h5.53a21.34,21.34,0,0,1,5.53-8.74,23.58,23.58,0,0,1,17.47-7.57c7,0,13.68,3.5,18.34,9a4.14,4.14,0,1,1-6.4,5.24,15.17,15.17,0,0,0-11.94-6.12c-4.37-.29-8.15,1.75-11.35,4.95a12.59,12.59,0,0,0-2.33,3.21h18.63a4.08,4.08,0,1,1,0,8.15h-21v1.16a3.74,3.74,0,0,0,.29,1.75h20.67a4.08,4.08,0,1,1,0,8.15H162.44c2.91,4.65,7.57,7.86,13.1,7.86a14.12,14.12,0,0,0,11.94-5.82,4.14,4.14,0,1,1,6.4,5.24,24.06,24.06,0,0,1-18.34,8.73h-.29c-9.9,0-18.63-6.7-22.13-16H147.3a4.08,4.08,0,0,1,0-8.15h4.08A10.64,10.64,0,0,1,151.09,180.78Zm76.56-67.25-5.24-60.84a16.87,16.87,0,0,0-18-15.14l-60.84,5.24,6.69,77.44ZM161.28,71.32l5.53-.58c2.62-9.9,11.06-17.47,21.25-18.34A23.63,23.63,0,0,1,207,60a4.12,4.12,0,0,1-6.11,5.53,15.67,15.67,0,0,0-12.52-5,15.46,15.46,0,0,0-12.81,9.32l18.63-1.46a4.09,4.09,0,1,1,.58,8.15l-20.67,2v1.16c0,.59.3,1.17.3,2L195,80.06a4.09,4.09,0,0,1,.59,8.15l-18,1.45a15.23,15.23,0,0,0,13.68,6.41,15.05,15.05,0,0,0,11.35-6.7,4.2,4.2,0,0,1,7,4.66,23.34,23.34,0,0,1-17.47,10.48h-1.74c-9.32,0-17.47-5.53-21.84-14l-6.11.58h-.29a4.13,4.13,0,0,1-4.08-3.79A3.84,3.84,0,0,1,161.86,83l4.07-.29c0-.59-.29-1.17-.29-2V79.47l-4.07.29h-.29A4.12,4.12,0,0,1,157.2,76,4.71,4.71,0,0,1,161.28,71.32ZM46,72.19V133h77.44V55.6H62.59A16.78,16.78,0,0,0,46,72.19ZM69,85.88c3.5-9.61,12.23-16.3,22.42-16.3h.29a24.36,24.36,0,0,1,18.34,9,4.14,4.14,0,0,1-6.4,5.24A15.2,15.2,0,0,0,91.7,77.73h0a15.34,15.34,0,0,0-13.39,8.15H96.94a4.08,4.08,0,1,1,0,8.15H76v1.16a3.7,3.7,0,0,0,.29,1.75H96.94a4.08,4.08,0,1,1,0,8.15h-18C81.8,109.75,86.46,113,92,113h0a15.33,15.33,0,0,0,11.94-5.82,4.14,4.14,0,0,1,6.4,5.24A24.06,24.06,0,0,1,92,121.1H91.7c-9.9,0-18.63-6.69-22.12-16H63.75a4.08,4.08,0,0,1,0-8.15h4.37c0-.58-.29-1.16-.29-2V93.74H63.75a4.08,4.08,0,0,1,0-8.15H69Z"/><rect class="cls-3" x="262" width="766" height="262"/><path class="cls-4" d="M389.25,29.18V69H384V40L370.66,69h-3.39L353.9,40V69h-5.23V29.18H354l15,32.6,14.93-32.6Z"/><path class="cls-4" d="M411.06,69.47A14.53,14.53,0,0,1,400,65q-4.25-4.48-4.24-11.82t4.3-11.8a14.86,14.86,0,0,1,11.16-4.45q6.87,0,11,4.22a14.65,14.65,0,0,1,4.16,10.76,18.8,18.8,0,0,1-.23,3.1H401.13a10.87,10.87,0,0,0,3,7.44,9.47,9.47,0,0,0,7,2.72,9.83,9.83,0,0,0,5.43-1.43,8.56,8.56,0,0,0,3.24-3.79h5.62a14.45,14.45,0,0,1-5.13,6.83A15,15,0,0,1,411.06,69.47ZM418.12,44a9.64,9.64,0,0,0-7-2.72,9.54,9.54,0,0,0-6.92,2.67,10.71,10.71,0,0,0-3,7.31H421A9.83,9.83,0,0,0,418.12,44Z"/><path class="cls-4" d="M438.1,31.36a3.49,3.49,0,0,1-2.53,1,3.37,3.37,0,0,1-2.5-1,3.48,3.48,0,0,1-1-2.53,3.53,3.53,0,0,1,6-2.52,3.61,3.61,0,0,1,0,5.05ZM432.93,69V37.44h5.22V69Z"/><path class="cls-4" d="M452,37.44v5.11q3.22-5.62,10.28-5.63A11.87,11.87,0,0,1,471,40.4q3.51,3.47,3.5,9.9V69h-5.16V51.16q0-4.77-2.3-7.23a8.21,8.21,0,0,0-6.34-2.47,8.31,8.31,0,0,0-6.37,2.47Q452,46.39,452,51.16V69h-5.22V37.44Z"/><path class="cls-4" d="M496,69.47A14.51,14.51,0,0,1,485,65q-4.26-4.48-4.25-11.82t4.3-11.8a16.37,16.37,0,0,1,22.19-.23,14.69,14.69,0,0,1,4.16,10.76,20,20,0,0,1-.23,3.1H486.08A10.82,10.82,0,0,0,489,62.44a9.47,9.47,0,0,0,7,2.72,9.79,9.79,0,0,0,5.42-1.43,8.56,8.56,0,0,0,3.24-3.79h5.63a14.53,14.53,0,0,1-5.14,6.83A15,15,0,0,1,496,69.47ZM503.07,44a9.67,9.67,0,0,0-7-2.72,9.52,9.52,0,0,0-6.91,2.67,10.71,10.71,0,0,0-3.05,7.31h19.81A9.87,9.87,0,0,0,503.07,44Z"/><path class="cls-4" d="M393.73,84.18h5.51L387.19,124h-5.86l-8.95-32.14L362.79,124,357,124,345.75,84.18h5.51L360.1,118l9.64-33.8h5.74l8.89,33.69Z"/><path class="cls-4" d="M427.13,92.44h5.23V124h-5.23v-5q-3.15,5.56-10.27,5.57a11.87,11.87,0,0,1-8.72-3.48q-3.51-3.46-3.51-9.84V92.44h5.17v17.85q0,4.71,2.32,7.2a9.3,9.3,0,0,0,12.69,0q2.32-2.49,2.32-7.2Z"/><path class="cls-4" d="M446.19,92.44v5.11q3.21-5.62,10.27-5.63a11.9,11.9,0,0,1,8.73,3.48q3.49,3.46,3.5,9.9V124h-5.17V106.16c0-3.18-.77-5.59-2.29-7.23a9.42,9.42,0,0,0-12.72,0q-2.33,2.46-2.32,7.23V124H441V92.44Z"/><path class="cls-4" d="M475.86,101.34a8.38,8.38,0,0,1,3.3-6.69,13,13,0,0,1,8.55-2.73q5.25,0,8.24,2.67a10.21,10.21,0,0,1,3.27,7.32h-5.4a6,6,0,0,0-1.77-4.25,6.38,6.38,0,0,0-4.62-1.6,7,7,0,0,0-4.65,1.4,4.51,4.51,0,0,0-1.7,3.62,3.8,3.8,0,0,0,1.93,3.41,13.56,13.56,0,0,0,4.64,1.75q2.73.56,5.46,1.27a9.84,9.84,0,0,1,4.65,2.69,7.76,7.76,0,0,1,1.92,5.63,7.46,7.46,0,0,1-3.3,6.14,13.87,13.87,0,0,1-8.58,2.5,12.87,12.87,0,0,1-8.47-2.64,9.8,9.8,0,0,1-3.47-7.29h5.4a5.74,5.74,0,0,0,1.86,4.22,6.94,6.94,0,0,0,4.82,1.57,7.82,7.82,0,0,0,4.82-1.32,4,4,0,0,0,1.75-3.35,4.13,4.13,0,0,0-1.37-3.25,7.73,7.73,0,0,0-3.45-1.66c-1.38-.31-2.88-.67-4.5-1.09s-3.13-.87-4.51-1.35a7.29,7.29,0,0,1-3.44-2.5A7.05,7.05,0,0,1,475.86,101.34Z"/><path class="cls-4" d="M509.38,120q-4.25-4.48-4.25-11.8c0-4.87,1.42-8.81,4.25-11.79a14.51,14.51,0,0,1,11-4.48,15.24,15.24,0,0,1,9.27,2.64,13.87,13.87,0,0,1,5,7.52h-5.63a8.23,8.23,0,0,0-3.15-4.3,9.39,9.39,0,0,0-5.51-1.55,9,9,0,0,0-7.2,3.13c-1.82,2.08-2.73,5-2.73,8.83s.91,6.76,2.73,8.84a9,9,0,0,0,7.2,3.13q6.72,0,8.66-5.85h5.63a14.31,14.31,0,0,1-5.08,7.4,14.83,14.83,0,0,1-9.21,2.76A14.51,14.51,0,0,1,509.38,120Z"/><path class="cls-4" d="M546.86,81.48V97.55q3.21-5.62,10.27-5.63a11.87,11.87,0,0,1,8.72,3.48q3.51,3.46,3.51,9.9V124h-5.17V106.16q0-4.77-2.3-7.23a8.21,8.21,0,0,0-6.34-2.47,8.31,8.31,0,0,0-6.37,2.47q-2.32,2.46-2.32,7.23V124h-5.23V81.48Z"/><path class="cls-4" d="M578.77,105.18v-4.47h22.9v4.47Z"/><path class="cls-4" d="M609.59,88.37V84.18h26.23v4.19H625.31V124h-5.22V88.37Z"/><path class="cls-4" d="M655.9,124.47a14.54,14.54,0,0,1-11-4.48q-4.25-4.48-4.24-11.82t4.3-11.8a14.87,14.87,0,0,1,11.17-4.45q6.85,0,11,4.22a14.66,14.66,0,0,1,4.17,10.76,20,20,0,0,1-.23,3.1H646a10.82,10.82,0,0,0,2.95,7.44,9.47,9.47,0,0,0,7,2.72,9.8,9.8,0,0,0,5.43-1.43,8.56,8.56,0,0,0,3.24-3.79h5.63a14.53,14.53,0,0,1-5.14,6.83A15,15,0,0,1,655.9,124.47ZM663,99a9.64,9.64,0,0,0-7-2.72,9.52,9.52,0,0,0-6.91,2.67,10.67,10.67,0,0,0-3.05,7.31h19.8A9.79,9.79,0,0,0,663,99Z"/><path class="cls-4" d="M682.94,86.36a3.47,3.47,0,0,1-2.53,1,3.35,3.35,0,0,1-2.49-1,3.49,3.49,0,0,1-1-2.53,3.53,3.53,0,1,1,6,2.53ZM677.77,124V92.44H683V124Z"/><path class="cls-4" d="M691.6,124V81.48h5.23V124Z"/><path class="cls-4" d="M724.66,92.44v4.25l-15.21,23h15.21V124H703.54V119.7l15.21-23H703.54V92.44Z"/><path class="cls-4" d="M733.67,119.85a16.66,16.66,0,0,1-4.3-11.83q0-7.2,4.27-11.65a14.33,14.33,0,0,1,10.77-4.45,12.89,12.89,0,0,1,7,1.9A12.4,12.4,0,0,1,756,98.75V92.44h5.28V124H756v-6.43a12.44,12.44,0,0,1-4.56,5,12.74,12.74,0,0,1-7,1.93A14.07,14.07,0,0,1,733.67,119.85Zm19.2-3.07a11.75,11.75,0,0,0,3.13-8.56,11.72,11.72,0,0,0-3.13-8.55,10.11,10.11,0,0,0-7.52-3.21,10.31,10.31,0,0,0-7.52,3.1,11.34,11.34,0,0,0-3.12,8.43,12.1,12.1,0,0,0,3.15,8.67,10.25,10.25,0,0,0,15,.12Z"/><path class="cls-4" d="M775.11,81.48V97.55q3.21-5.62,10.27-5.63a11.89,11.89,0,0,1,8.73,3.48q3.5,3.46,3.5,9.9V124h-5.17V106.16q0-4.77-2.29-7.23a9.41,9.41,0,0,0-12.71,0q-2.33,2.46-2.33,7.23V124h-5.22V81.48Z"/><path class="cls-4" d="M805.93,124V81.48h5.22V124Z"/><path class="cls-4" d="M842,92.44h5.22V124H842v-5q-3.16,5.56-10.28,5.57A11.87,11.87,0,0,1,823,121q-3.51-3.46-3.5-9.84V92.44h5.16v17.85q0,4.71,2.33,7.2a9.29,9.29,0,0,0,12.68,0Q842,115,842,110.29Z"/><path class="cls-4" d="M861,92.44v5.11q3.21-5.62,10.27-5.63A11.9,11.9,0,0,1,880,95.4q3.5,3.46,3.5,9.9V124h-5.17V106.16q0-4.77-2.29-7.23a8.23,8.23,0,0,0-6.35-2.47,8.32,8.32,0,0,0-6.37,2.47q-2.33,2.46-2.32,7.23V124h-5.22V92.44Z"/><path class="cls-4" d="M894.09,119.85A16.66,16.66,0,0,1,889.78,108q0-7.2,4.28-11.65a14.32,14.32,0,0,1,10.76-4.45,12.87,12.87,0,0,1,7,1.9,12.4,12.4,0,0,1,4.56,4.93V92.44h5.28v32.31a14.13,14.13,0,0,1-4.19,10.59,14.52,14.52,0,0,1-10.61,4.11,18,18,0,0,1-10.65-3,10.81,10.81,0,0,1-4.79-7.8h5.11a7.72,7.72,0,0,0,3.5,4.47,12.29,12.29,0,0,0,6.83,1.78,9.34,9.34,0,0,0,6.8-2.67c1.81-1.78,2.72-4.27,2.72-7.49v-7.23a12.44,12.44,0,0,1-4.56,5,12.72,12.72,0,0,1-7,1.93A14.07,14.07,0,0,1,894.09,119.85Zm19.2-3.07a11.78,11.78,0,0,0,3.12-8.56,11.76,11.76,0,0,0-3.12-8.55,10.13,10.13,0,0,0-7.52-3.21,10.27,10.27,0,0,0-7.52,3.1,11.31,11.31,0,0,0-3.13,8.43,12.06,12.06,0,0,0,3.16,8.67A10,10,0,0,0,905.8,120,10.11,10.11,0,0,0,913.29,116.78Z"/><path class="cls-4" d="M373.16,157.18a5,5,0,0,1-1.61,3.45l-.16.17L362,170.65a59.24,59.24,0,0,1-5.08,4.84c-1.39,1.14-2.38,1.71-2.95,1.71a4.52,4.52,0,0,1-2.26-.86,4.31,4.31,0,0,1-1.74-1.76,14,14,0,0,1-.63-3.21,46,46,0,0,1-.29-5.31,4,4,0,0,1,1.3-2.88,4,4,0,0,1,2.87-1.32c1,0,1.6.91,1.79,2.74,0,.21,0,.36,0,.46a14.3,14.3,0,0,0,.56,2.94c.22.55.5.83.87.83a1.9,1.9,0,0,0,.84-.49,18.54,18.54,0,0,0,1.49-1.34l9.6-9.51a14,14,0,0,1,2.16-1.83,3.12,3.12,0,0,1,1.62-.62.74.74,0,0,1,.71.37,2.67,2.67,0,0,1,.22,1.27Z"/><path class="cls-5" d="M409.4,155.38v21.47h-2.85V161.2l-7.19,15.65h-1.82l-7.22-15.65v15.65H387.5V155.38h2.88l8.09,17.6,8-17.6Z"/><path class="cls-5" d="M421.17,177.13a7.81,7.81,0,0,1-5.94-2.42,8.89,8.89,0,0,1-2.3-6.38,8.78,8.78,0,0,1,2.33-6.37,8.83,8.83,0,0,1,12-.12,7.92,7.92,0,0,1,2.25,5.81,9.76,9.76,0,0,1-.13,1.67H415.81a5.89,5.89,0,0,0,1.6,4,5.1,5.1,0,0,0,3.76,1.47,5.22,5.22,0,0,0,2.93-.77,4.58,4.58,0,0,0,1.75-2.05h3a7.82,7.82,0,0,1-2.77,3.69A8.12,8.12,0,0,1,421.17,177.13ZM425,163.36a5.55,5.55,0,0,0-7.49,0,5.74,5.74,0,0,0-1.64,3.95h10.68A5.26,5.26,0,0,0,425,163.36Z"/><path class="cls-5" d="M435.77,156.56a1.88,1.88,0,0,1-1.37.55,1.8,1.8,0,0,1-1.34-.55,2,2,0,0,1,0-2.73,1.84,1.84,0,0,1,1.35-.56,1.87,1.87,0,0,1,1.35.56,1.86,1.86,0,0,1,.55,1.36A1.88,1.88,0,0,1,435.77,156.56ZM433,176.85v-17h2.82v17Z"/><path class="cls-5" d="M443.26,159.84v2.76a5.92,5.92,0,0,1,5.55-3,6.42,6.42,0,0,1,4.71,1.88,7.19,7.19,0,0,1,1.89,5.34v10.07h-2.79v-9.6a5.53,5.53,0,0,0-1.24-3.91,5.09,5.09,0,0,0-6.86,0,5.49,5.49,0,0,0-1.26,3.91v9.6h-2.82v-17Z"/><path class="cls-5" d="M467,177.13a7.81,7.81,0,0,1-5.94-2.42,8.89,8.89,0,0,1-2.3-6.38,8.78,8.78,0,0,1,2.33-6.37,8.83,8.83,0,0,1,12-.12,7.92,7.92,0,0,1,2.25,5.81,9.76,9.76,0,0,1-.13,1.67H461.67a5.84,5.84,0,0,0,1.59,4A5.1,5.1,0,0,0,467,174.8,5.22,5.22,0,0,0,470,174,4.58,4.58,0,0,0,471.7,172h3a7.82,7.82,0,0,1-2.77,3.69A8.12,8.12,0,0,1,467,177.13Zm3.81-13.77a5.55,5.55,0,0,0-7.49,0,5.74,5.74,0,0,0-1.64,3.95h10.68A5.26,5.26,0,0,0,470.83,163.36Z"/><path class="cls-5" d="M512.44,155.38h3l-6.5,21.47h-3.16l-4.83-17.35-5.18,17.35-3.13,0-6.07-21.5h3l4.77,18.25,5.2-18.25h3.1l4.8,18.18Z"/><path class="cls-5" d="M530.47,159.84h2.82v17h-2.82v-2.73a5.87,5.87,0,0,1-5.54,3,6.42,6.42,0,0,1-4.71-1.88,7.15,7.15,0,0,1-1.89-5.31v-10.1h2.79v9.64a5.47,5.47,0,0,0,1.25,3.88,5,5,0,0,0,6.85,0,5.52,5.52,0,0,0,1.25-3.88Zm-5.89-2.69a1.65,1.65,0,0,1-2.35,0,1.63,1.63,0,0,1-.5-1.18,1.66,1.66,0,0,1,2.85-1.18,1.64,1.64,0,0,1,0,2.36Zm5,0a1.7,1.7,0,0,1-2.39,0,1.65,1.65,0,0,1-.48-1.18,1.63,1.63,0,0,1,.48-1.18,1.68,1.68,0,0,1,2.39,0,1.63,1.63,0,0,1,.48,1.18A1.65,1.65,0,0,1,529.59,157.15Z"/><path class="cls-5" d="M540.76,159.84v2.76a5.89,5.89,0,0,1,5.54-3,6.42,6.42,0,0,1,4.71,1.88,7.19,7.19,0,0,1,1.89,5.34v10.07h-2.79v-9.6a5.53,5.53,0,0,0-1.24-3.91,4.42,4.42,0,0,0-3.42-1.33,4.49,4.49,0,0,0-3.44,1.33,5.49,5.49,0,0,0-1.25,3.91v9.6h-2.82v-17Z"/><path class="cls-5" d="M556.77,164.64a4.54,4.54,0,0,1,1.78-3.61,7,7,0,0,1,4.62-1.47,6.46,6.46,0,0,1,4.45,1.44,5.52,5.52,0,0,1,1.76,3.95h-2.91a3.24,3.24,0,0,0-1-2.29,3.43,3.43,0,0,0-2.49-.87,3.84,3.84,0,0,0-2.51.76,2.43,2.43,0,0,0-.92,1.95,2.08,2.08,0,0,0,1,1.85,7.38,7.38,0,0,0,2.51.94c1,.2,2,.42,2.94.68a5.36,5.36,0,0,1,2.51,1.46,4.17,4.17,0,0,1,1,3,4,4,0,0,1-1.78,3.32,7.46,7.46,0,0,1-4.63,1.35,6.92,6.92,0,0,1-4.57-1.43,5.29,5.29,0,0,1-1.88-3.93h2.92a3.07,3.07,0,0,0,1,2.27,3.74,3.74,0,0,0,2.6.86,4.22,4.22,0,0,0,2.61-.72,2.16,2.16,0,0,0,.94-1.81,2.24,2.24,0,0,0-.74-1.75,4.26,4.26,0,0,0-1.86-.9c-.74-.16-1.55-.36-2.43-.59s-1.69-.46-2.43-.72a3.91,3.91,0,0,1-1.86-1.35A3.82,3.82,0,0,1,556.77,164.64Z"/><path class="cls-5" d="M574.87,174.71a10,10,0,0,1,0-12.73,7.81,7.81,0,0,1,5.94-2.42,8.24,8.24,0,0,1,5,1.43,7.49,7.49,0,0,1,2.71,4h-3a4.47,4.47,0,0,0-1.7-2.32,5.1,5.1,0,0,0-3-.83,4.93,4.93,0,0,0-3.89,1.68,8.49,8.49,0,0,0,0,9.55,4.93,4.93,0,0,0,3.89,1.68q3.63,0,4.68-3.16h3a7.71,7.71,0,0,1-2.74,4,8.05,8.05,0,0,1-5,1.49A7.81,7.81,0,0,1,574.87,174.71Z"/><path class="cls-5" d="M595.09,153.92v8.68a5.92,5.92,0,0,1,5.55-3,6.42,6.42,0,0,1,4.71,1.88,7.19,7.19,0,0,1,1.89,5.34v10.07h-2.79v-9.6a5.53,5.53,0,0,0-1.24-3.91,4.43,4.43,0,0,0-3.42-1.33,4.49,4.49,0,0,0-3.44,1.33,5.49,5.49,0,0,0-1.26,3.91v9.6h-2.81V153.92Z"/><path class="cls-5" d="M618.86,177.13a7.84,7.84,0,0,1-6-2.42,8.88,8.88,0,0,1-2.29-6.38,8.77,8.77,0,0,1,2.32-6.37,8.83,8.83,0,0,1,12-.12,7.92,7.92,0,0,1,2.25,5.81,10.93,10.93,0,0,1-.12,1.67H613.5a5.84,5.84,0,0,0,1.59,4,5.11,5.11,0,0,0,3.77,1.47,5.21,5.21,0,0,0,2.92-.77,4.58,4.58,0,0,0,1.75-2.05h3a7.82,7.82,0,0,1-2.77,3.69A8.09,8.09,0,0,1,618.86,177.13Zm3.81-13.77a5.22,5.22,0,0,0-3.77-1.47,5.15,5.15,0,0,0-3.73,1.44,5.74,5.74,0,0,0-1.64,3.95h10.69A5.3,5.3,0,0,0,622.67,163.36Z"/><path class="cls-5" d="M641.16,174.63a9,9,0,0,1-2.32-6.38,8.7,8.7,0,0,1,2.31-6.29,7.7,7.7,0,0,1,5.81-2.4,7,7,0,0,1,3.79,1,6.71,6.71,0,0,1,2.46,2.67v-3.41h2.85v17h-2.85v-3.47a6.74,6.74,0,0,1-2.46,2.71,6.9,6.9,0,0,1-3.79,1A7.58,7.58,0,0,1,641.16,174.63ZM651.52,173a7.16,7.16,0,0,0,0-9.24,5.45,5.45,0,0,0-4-1.73,5.57,5.57,0,0,0-4.06,1.67,6.13,6.13,0,0,0-1.69,4.56,6.51,6.51,0,0,0,1.7,4.67,5.53,5.53,0,0,0,8.1.07Z"/><path class="cls-5" d="M669.82,159.56a7.73,7.73,0,0,1,5.81,2.4,8.7,8.7,0,0,1,2.31,6.29,9,9,0,0,1-2.33,6.38,7.57,7.57,0,0,1-5.79,2.5,6.94,6.94,0,0,1-3.8-1,7,7,0,0,1-2.49-2.71v3.47h-2.82V153.92h2.82v9.33a6.89,6.89,0,0,1,6.29-3.69Zm-.54,15.15a5.36,5.36,0,0,0,4.05-1.78,6.51,6.51,0,0,0,1.69-4.68,6.14,6.14,0,0,0-1.69-4.57,5.55,5.55,0,0,0-4.05-1.67,5.47,5.47,0,0,0-4.06,1.73,6.3,6.3,0,0,0-1.69,4.6,6.37,6.37,0,0,0,1.69,4.62A5.42,5.42,0,0,0,669.28,174.71Z"/><path class="cls-5" d="M693.22,176.85V157.41h-3.54v-4.32H698v23.76Z"/><path class="cls-5" d="M703,164.65q0-12.12,9-12.13t9,12.13q0,12.14-9,12.13T703,164.65Zm11-7.34a4.18,4.18,0,0,0-2-.44,4.25,4.25,0,0,0-2,.44,3.48,3.48,0,0,0-1.28,1.1,5.65,5.65,0,0,0-.72,1.76,12.49,12.49,0,0,0-.35,2.09c-.06.67-.09,1.46-.09,2.38s0,1.7.09,2.37a12.49,12.49,0,0,0,.35,2.09,5.79,5.79,0,0,0,.72,1.78,3.43,3.43,0,0,0,1.28,1.12,4.25,4.25,0,0,0,2,.43,4.18,4.18,0,0,0,2-.43,3.39,3.39,0,0,0,1.29-1.12,5.79,5.79,0,0,0,.72-1.78,12.49,12.49,0,0,0,.35-2.09q.09-1,.09-2.37c0-.92,0-1.71-.09-2.38a12.49,12.49,0,0,0-.35-2.09,5.65,5.65,0,0,0-.72-1.76A3.43,3.43,0,0,0,714,157.31Z"/><path class="cls-5" d="M740.33,169.35h-6.12a6.46,6.46,0,0,0,2.49,2.51,7.14,7.14,0,0,0,3.63.91,5.59,5.59,0,0,0,5.36-3.08h5.65a10.64,10.64,0,0,1-4.23,5.44,12.27,12.27,0,0,1-6.81,1.92,12,12,0,0,1-6.91-2.09,11.11,11.11,0,0,1-4.3-5.61h-2.94v-3h2.3c0-.53-.06-.94-.06-1.22s0-.68.06-1.22h-2.3v-3.08h3a11.35,11.35,0,0,1,4.32-5.57,11.89,11.89,0,0,1,6.88-2.09,12.16,12.16,0,0,1,6.79,1.94,10.66,10.66,0,0,1,4.23,5.45h-5.65q-1.58-3.08-5.54-3.07a6.44,6.44,0,0,0-5.94,3.34h6.12v3.08h-7.09c0,.54-.07.94-.07,1.22s0,.69.07,1.22h7.09Z"/><path class="cls-5" d="M766.78,159.84v2.76a5.92,5.92,0,0,1,5.55-3,6.77,6.77,0,0,1,3.53.95,5.87,5.87,0,0,1,2.38,2.74,6.89,6.89,0,0,1,2.53-2.71,6.82,6.82,0,0,1,3.64-1,6.5,6.5,0,0,1,4.77,1.88,7.19,7.19,0,0,1,1.89,5.34v10.07h-2.79v-9.6a5.53,5.53,0,0,0-1.25-3.91,5.08,5.08,0,0,0-6.85,0,5.49,5.49,0,0,0-1.26,3.91v9.6h-2.78v-9.6a5.58,5.58,0,0,0-1.24-3.91,5.09,5.09,0,0,0-6.86,0,5.49,5.49,0,0,0-1.26,3.91v9.6H764v-17Z"/><path class="cls-5" d="M796.78,174.71a8.74,8.74,0,0,1-2.33-6.35,8.61,8.61,0,0,1,2.44-6.37,9,9,0,0,1,12.27,0,8.58,8.58,0,0,1,2.45,6.35,8.37,8.37,0,0,1-2.56,6.36,8.71,8.71,0,0,1-6.24,2.43A8,8,0,0,1,796.78,174.71Zm6,.09a5.71,5.71,0,0,0,4.14-1.72,6.37,6.37,0,0,0,1.75-4.75,6.47,6.47,0,0,0-1.68-4.74,5.46,5.46,0,0,0-4.07-1.7,5.27,5.27,0,0,0-4,1.7,6.62,6.62,0,0,0-1.61,4.75,6.79,6.79,0,0,0,1.55,4.76A5.05,5.05,0,0,0,802.81,174.8Z"/><path class="cls-5" d="M818,159.84v2.76a5.9,5.9,0,0,1,5.54-3,6.42,6.42,0,0,1,4.71,1.88,7.19,7.19,0,0,1,1.89,5.34v10.07h-2.78v-9.6a5.58,5.58,0,0,0-1.24-3.91,4.45,4.45,0,0,0-3.43-1.33,4.5,4.5,0,0,0-3.44,1.33,5.53,5.53,0,0,0-1.25,3.91v9.6h-2.82v-17Z"/><path class="cls-5" d="M835.8,174.63a9,9,0,0,1-2.32-6.38,8.7,8.7,0,0,1,2.31-6.29,7.72,7.72,0,0,1,5.81-2.4,7,7,0,0,1,3.79,1,6.63,6.63,0,0,1,2.46,2.67v-3.41h2.86v17h-2.86v-3.47a6.67,6.67,0,0,1-2.46,2.71,6.9,6.9,0,0,1-3.79,1A7.58,7.58,0,0,1,835.8,174.63ZM846.17,173a7.19,7.19,0,0,0,0-9.24,5.49,5.49,0,0,0-4.06-1.73,5.57,5.57,0,0,0-4.06,1.67,6.13,6.13,0,0,0-1.69,4.56,6.51,6.51,0,0,0,1.7,4.67,5.41,5.41,0,0,0,4.06,1.8A5.48,5.48,0,0,0,846.17,173Z"/><path class="cls-5" d="M860.93,174.56h2.32v2.29H860.4q-4.42,0-4.43-4.37V162.13h-2.2v-2.29H856v-4.21h2.85v4.21h4.4v2.29h-4.4v10.35a2.23,2.23,0,0,0,.47,1.61A2.28,2.28,0,0,0,860.93,174.56Z"/><path class="cls-5" d="M866.35,176.85V153.92h2.82v22.93Z"/><path class="cls-5" d="M876.6,156.56a1.84,1.84,0,0,1-1.36.55,1.8,1.8,0,0,1-1.35-.55,1.91,1.91,0,0,1-.54-1.37,1.86,1.86,0,0,1,.56-1.36,1.92,1.92,0,0,1,2.69,2.73Zm-2.78,20.29v-17h2.81v17Z"/><path class="cls-5" d="M882.46,174.71a10,10,0,0,1,0-12.73,7.84,7.84,0,0,1,5.95-2.42,8.23,8.23,0,0,1,5,1.43,7.49,7.49,0,0,1,2.71,4h-3a4.42,4.42,0,0,0-1.7-2.32,5.07,5.07,0,0,0-3-.83,4.92,4.92,0,0,0-3.89,1.68,8.49,8.49,0,0,0,0,9.55,4.92,4.92,0,0,0,3.89,1.68,4.42,4.42,0,0,0,4.67-3.16h3a7.71,7.71,0,0,1-2.74,4,8,8,0,0,1-5,1.49A7.84,7.84,0,0,1,882.46,174.71Z"/><path class="cls-5" d="M902.69,153.92v8.68a5.89,5.89,0,0,1,5.54-3,6.42,6.42,0,0,1,4.71,1.88,7.19,7.19,0,0,1,1.89,5.34v10.07H912v-9.6a5.57,5.57,0,0,0-1.23-3.91,4.45,4.45,0,0,0-3.43-1.33,4.5,4.5,0,0,0-3.44,1.33,5.53,5.53,0,0,0-1.25,3.91v9.6h-2.82V153.92Z"/><path class="cls-5" d="M921.77,176.32a1.79,1.79,0,0,1-3.06-1.28,1.79,1.79,0,0,1,1.79-1.82,1.73,1.73,0,0,1,1.27.53,1.82,1.82,0,0,1,0,2.57Z"/><path class="cls-4" d="M373.16,202.34a5,5,0,0,1-1.61,3.45l-.16.17L362,215.8a58.05,58.05,0,0,1-5.08,4.85c-1.39,1.14-2.38,1.7-2.95,1.7a4.49,4.49,0,0,1-2.26-.85,4.31,4.31,0,0,1-1.74-1.76,14.12,14.12,0,0,1-.63-3.21,46,46,0,0,1-.29-5.31,4,4,0,0,1,1.3-2.88,4,4,0,0,1,2.87-1.32c1,0,1.6.91,1.79,2.73,0,.22,0,.37,0,.47a14.6,14.6,0,0,0,.56,2.94c.22.55.5.83.87.83a1.9,1.9,0,0,0,.84-.49c.42-.33.91-.78,1.49-1.34l9.6-9.52a15.27,15.27,0,0,1,2.16-1.83,3.21,3.21,0,0,1,1.62-.62.74.74,0,0,1,.71.38,2.64,2.64,0,0,1,.22,1.27Z"/><path class="cls-5" d="M387.5,222V200.54h12.08v2.26h-9.26v7.28h7.31v2.23h-7.31V222Z"/><path class="cls-5" d="M402.68,222V199.08h2.82V222Z"/><path class="cls-5" d="M417.27,222.29a7.84,7.84,0,0,1-5.95-2.42,8.88,8.88,0,0,1-2.29-6.38,8.76,8.76,0,0,1,2.32-6.37,8.84,8.84,0,0,1,12-.12,7.93,7.93,0,0,1,2.24,5.81,10.93,10.93,0,0,1-.12,1.67H411.91a5.84,5.84,0,0,0,1.6,4,5.09,5.09,0,0,0,3.76,1.47,5.33,5.33,0,0,0,2.93-.77,4.64,4.64,0,0,0,1.75-2.05h3a7.76,7.76,0,0,1-2.77,3.69A8.09,8.09,0,0,1,417.27,222.29Zm3.81-13.78a5.56,5.56,0,0,0-7.5,0,5.81,5.81,0,0,0-1.64,4h10.69A5.33,5.33,0,0,0,421.08,208.51Z"/><path class="cls-5" d="M441.19,205l-5.49,8.49,5.46,8.52H438l-4-6.32L430.19,222h-3.07l5.49-8.43L427.12,205h3.19l4.06,6.35,3.78-6.35Z"/><path class="cls-5" d="M446.67,201.71a1.83,1.83,0,0,1-1.36.56,1.77,1.77,0,0,1-1.35-.56,1.87,1.87,0,0,1-.54-1.36,1.9,1.9,0,0,1,3.25-1.36,1.93,1.93,0,0,1,0,2.72ZM443.88,222V205h2.82v17Z"/><path class="cls-5" d="M460.46,204.72a7.73,7.73,0,0,1,5.81,2.4,8.73,8.73,0,0,1,2.3,6.29,9,9,0,0,1-2.32,6.38,7.61,7.61,0,0,1-5.79,2.5,6.94,6.94,0,0,1-3.8-1,7,7,0,0,1-2.49-2.71V222h-2.82V199.08h2.82v9.33a6.94,6.94,0,0,1,2.49-2.67A7,7,0,0,1,460.46,204.72Zm-.55,15.15a5.38,5.38,0,0,0,4.06-1.78,6.51,6.51,0,0,0,1.69-4.68,6.14,6.14,0,0,0-1.69-4.57,5.53,5.53,0,0,0-4.06-1.67,5.45,5.45,0,0,0-4.05,1.73,6.3,6.3,0,0,0-1.69,4.6,6.37,6.37,0,0,0,1.69,4.62A5.4,5.4,0,0,0,459.91,219.87Z"/><path class="cls-5" d="M479.23,222.29a7.84,7.84,0,0,1-6-2.42,8.88,8.88,0,0,1-2.29-6.38,8.76,8.76,0,0,1,2.32-6.37,8.84,8.84,0,0,1,12-.12,7.93,7.93,0,0,1,2.24,5.81,10.93,10.93,0,0,1-.12,1.67H473.87a5.8,5.8,0,0,0,1.6,4,5.09,5.09,0,0,0,3.76,1.47,5.33,5.33,0,0,0,2.93-.77,4.64,4.64,0,0,0,1.75-2.05h3a7.76,7.76,0,0,1-2.77,3.69A8.09,8.09,0,0,1,479.23,222.29ZM483,208.51a5.56,5.56,0,0,0-7.5,0,5.76,5.76,0,0,0-1.64,4h10.69A5.33,5.33,0,0,0,483,208.51Z"/><path class="cls-5" d="M491,222V199.08h2.82V222Z"/><path class="cls-5" d="M501,221.48a1.85,1.85,0,1,1,.52-1.29A1.75,1.75,0,0,1,501,221.48Z"/><path class="cls-5" d="M526.16,200.54v2.23h-8.55v7.31h7.62v2.2h-7.62v7.5h8.55V222H514.79V200.54Z"/><path class="cls-5" d="M533.23,201.71a1.83,1.83,0,0,1-1.36.56,1.77,1.77,0,0,1-1.35-.56,1.94,1.94,0,0,1,0-2.72,1.91,1.91,0,0,1,2.7,0,1.93,1.93,0,0,1,0,2.72ZM530.44,222V205h2.82v17Z"/><path class="cls-5" d="M540.72,205v2.76a5.92,5.92,0,0,1,5.55-3,6.42,6.42,0,0,1,4.71,1.87,7.2,7.2,0,0,1,1.89,5.35V222h-2.79V212.4a5.52,5.52,0,0,0-1.24-3.9,4.43,4.43,0,0,0-3.42-1.33A4.49,4.49,0,0,0,542,208.5a5.48,5.48,0,0,0-1.26,3.9V222h-2.81V205Z"/><path class="cls-5" d="M564.36,205v2.29H560.8V222H558V207.29h-2.2V205H558v-1.43a5,5,0,0,1,1.49-4,7.08,7.08,0,0,1,4.67-1.27v2.29a3.74,3.74,0,0,0-2.58.69,3.14,3.14,0,0,0-.73,2.34V205Z"/><path class="cls-5" d="M568.79,219.79a9,9,0,0,1-2.32-6.38,8.7,8.7,0,0,1,2.31-6.29,7.69,7.69,0,0,1,5.8-2.4,7,7,0,0,1,3.8,1,6.64,6.64,0,0,1,2.46,2.67V205h2.85v17h-2.85v-3.47a6.74,6.74,0,0,1-2.46,2.71,6.92,6.92,0,0,1-3.8,1A7.61,7.61,0,0,1,568.79,219.79Zm10.36-1.66a7.15,7.15,0,0,0,0-9.23,5.45,5.45,0,0,0-4-1.73,5.53,5.53,0,0,0-4.06,1.67,6.1,6.1,0,0,0-1.69,4.55,6.52,6.52,0,0,0,1.7,4.68,5.52,5.52,0,0,0,8.1.06Z"/><path class="cls-5" d="M589.52,219.87a10,10,0,0,1,0-12.73,7.84,7.84,0,0,1,6-2.42,8.23,8.23,0,0,1,5,1.43,7.49,7.49,0,0,1,2.71,4h-3a4.42,4.42,0,0,0-1.7-2.32,5.1,5.1,0,0,0-3-.84,4.91,4.91,0,0,0-3.89,1.69,8.47,8.47,0,0,0,0,9.54,4.88,4.88,0,0,0,3.89,1.69,4.42,4.42,0,0,0,4.67-3.16h3a7.71,7.71,0,0,1-2.74,4,8,8,0,0,1-5,1.49A7.84,7.84,0,0,1,589.52,219.87Z"/><path class="cls-5" d="M609.75,199.08v8.68a5.89,5.89,0,0,1,5.54-3,6.42,6.42,0,0,1,4.71,1.87,7.2,7.2,0,0,1,1.89,5.35V222H619.1V212.4a5.52,5.52,0,0,0-1.24-3.9,4.42,4.42,0,0,0-3.42-1.33A4.49,4.49,0,0,0,611,208.5a5.52,5.52,0,0,0-1.25,3.9V222h-2.82V199.08Z"/><path class="cls-5" d="M628.83,221.48a1.79,1.79,0,0,1-2.54,0,1.82,1.82,0,0,1,0-2.57,1.79,1.79,0,0,1,2.54,0,1.82,1.82,0,0,1,0,2.57Z"/><path class="cls-5" d="M645,206.27a2.94,2.94,0,0,0,.65,1.95,3.83,3.83,0,0,0,1.67,1.15,19,19,0,0,0,2.28.65c.84.18,1.67.4,2.51.63a10.65,10.65,0,0,1,2.28.92,4.32,4.32,0,0,1,1.67,1.67,5.42,5.42,0,0,1,.65,2.76,5.9,5.9,0,0,1-1.92,4.37,7.18,7.18,0,0,1-5.19,1.85,8.74,8.74,0,0,1-5.31-1.5,4.78,4.78,0,0,1-2-4.07h3a3.35,3.35,0,0,0,1.16,2.35,4.58,4.58,0,0,0,3.08.9,4.8,4.8,0,0,0,3.26-1.05,3.21,3.21,0,0,0,1.2-2.47,3.17,3.17,0,0,0-.65-2.16,3.9,3.9,0,0,0-1.67-1.14,16.93,16.93,0,0,0-2.28-.63c-.83-.18-1.67-.39-2.51-.64a10.8,10.8,0,0,1-2.27-.94,4.5,4.5,0,0,1-1.68-1.7,5.62,5.62,0,0,1-.65-2.81,5.47,5.47,0,0,1,1.94-4.38,7.46,7.46,0,0,1,5.05-1.66,7.84,7.84,0,0,1,5,1.44,5.64,5.64,0,0,1,2.12,4h-3.13a3.18,3.18,0,0,0-1.19-2.17,4.35,4.35,0,0,0-2.88-.89,4.59,4.59,0,0,0-3,.91A3.21,3.21,0,0,0,645,206.27Z"/><path class="cls-5" d="M663.65,201.71a1.83,1.83,0,0,1-1.36.56,1.77,1.77,0,0,1-1.35-.56,1.87,1.87,0,0,1-.54-1.36,1.9,1.9,0,0,1,3.25-1.36,1.93,1.93,0,0,1,0,2.72ZM660.86,222V205h2.82v17Z"/><path class="cls-5" d="M669.51,219.87a10,10,0,0,1,0-12.73,7.81,7.81,0,0,1,5.94-2.42,8.24,8.24,0,0,1,5,1.43,7.49,7.49,0,0,1,2.71,4h-3a4.47,4.47,0,0,0-1.7-2.32,5.11,5.11,0,0,0-3-.84,4.91,4.91,0,0,0-3.88,1.69,8.43,8.43,0,0,0,0,9.54,4.88,4.88,0,0,0,3.88,1.69q3.63,0,4.68-3.16h3a7.71,7.71,0,0,1-2.74,4,8.05,8.05,0,0,1-5,1.49A7.81,7.81,0,0,1,669.51,219.87Z"/><path class="cls-5" d="M689.74,199.08v8.68a5.89,5.89,0,0,1,5.54-3,6.42,6.42,0,0,1,4.71,1.87,7.2,7.2,0,0,1,1.89,5.35V222h-2.79V212.4a5.52,5.52,0,0,0-1.24-3.9,4.43,4.43,0,0,0-3.42-1.33A4.49,4.49,0,0,0,691,208.5a5.47,5.47,0,0,0-1.25,3.9V222h-2.82V199.08Z"/><path class="cls-5" d="M713.5,222.29a7.84,7.84,0,0,1-6-2.42,8.88,8.88,0,0,1-2.29-6.38,8.76,8.76,0,0,1,2.32-6.37,8.83,8.83,0,0,1,12-.12,7.9,7.9,0,0,1,2.25,5.81,10.93,10.93,0,0,1-.12,1.67H708.14a5.84,5.84,0,0,0,1.59,4A5.11,5.11,0,0,0,713.5,220a5.29,5.29,0,0,0,2.92-.77,4.58,4.58,0,0,0,1.75-2.05h3a7.82,7.82,0,0,1-2.77,3.69A8.09,8.09,0,0,1,713.5,222.29Zm3.81-13.78a5.22,5.22,0,0,0-3.77-1.47,5.15,5.15,0,0,0-3.73,1.44,5.76,5.76,0,0,0-1.64,4h10.69A5.33,5.33,0,0,0,717.31,208.51Z"/><path class="cls-5" d="M728.12,205v2.88a5.29,5.29,0,0,1,5.17-3.16v2.94h-.74a4.47,4.47,0,0,0-3.3,1.13c-.75.76-1.13,2.06-1.13,3.92V222H725.3V205Z"/><path class="cls-5" d="M739.15,221.48a1.85,1.85,0,1,1,.52-1.29A1.75,1.75,0,0,1,739.15,221.48Z"/></svg>